<?xml version="1.0" encoding="UTF-8"?>
<!DOCTYPE svg PUBLIC "-//W3C//DTD SVG 1.1//EN" "http://www.w3.org/Graphics/SVG/1.1/DTD/svg11.dtd">
<!-- Creator: CorelDRAW 2019 (64 Bit) -->
<svg xmlns="http://www.w3.org/2000/svg" xml:space="preserve" width="34.3124mm" height="559.54mm" version="1.1" style="shape-rendering:geometricPrecision; text-rendering:geometricPrecision; image-rendering:optimizeQuality; fill-rule:evenodd; clip-rule:evenodd"
viewBox="0 0 60.25 982.48"
 xmlns:xlink="http://www.w3.org/1999/xlink">
 <defs>
  <style type="text/css">
   <![CDATA[
    .fil1 {fill:none}
    .fil3 {fill:#28282A}
    .fil4 {fill:url(#id0)}
    .fil5 {fill:url(#id1)}
    .fil0 {fill:url(#id2)}
    .fil2 {fill:url(#id3)}
   ]]>
  </style>
  <linearGradient id="id0" gradientUnits="userSpaceOnUse" x1="14.29" y1="203.95" x2="44.62" y2="229.85">
   <stop offset="0" style="stop-opacity:1; stop-color:#B31279"/>
   <stop offset="1" style="stop-opacity:1; stop-color:#540080"/>
  </linearGradient>
  <linearGradient id="id1" gradientUnits="userSpaceOnUse" x1="11.84" y1="210.92" x2="35.64" y2="228.69">
   <stop offset="0" style="stop-opacity:1; stop-color:#EDCF18"/>
   <stop offset="1" style="stop-opacity:1; stop-color:#B31279"/>
  </linearGradient>
  <linearGradient id="id2" gradientUnits="userSpaceOnUse" x1="1.98" y1="7.57" x2="1.95" y2="982.48">
   <stop offset="0" style="stop-opacity:1; stop-color:#EDCF18"/>
   <stop offset="0.239216" style="stop-opacity:1; stop-color:#28282A"/>
   <stop offset="1" style="stop-opacity:1; stop-color:#EDCF18"/>
  </linearGradient>
  <radialGradient id="id3" gradientUnits="userSpaceOnUse" gradientTransform="matrix(3.56 -1.53983 2.19495 -4.41875 -523 1289)" cx="0.5" cy="237.64" r="154.09" fx="0.5" fy="237.64">
   <stop offset="0" style="stop-opacity:1; stop-color:#EDCF18"/>
   <stop offset="0.34902" style="stop-opacity:1; stop-color:#EDCF18"/>
   <stop offset="0.619608" style="stop-opacity:1; stop-color:#B31279"/>
   <stop offset="1" style="stop-opacity:1; stop-color:#540080"/>
  </radialGradient>
 </defs>
 <g id="Camada_x0020_1">
  <metadata id="CorelCorpID_0Corel-Layer"/>
  <rect class="fil0" x="-0" y="-0" width="3.51" height="982.48"/>
  <g id="_2233739767344">
   <path class="fil1" d="M3.51 475.38l0 -175.59m0 0c1.48,-19.15 8.43,-29.38 20.85,-30.71 9.07,-1.22 15.25,-6.76 18.53,-16.63 4.28,-9.46 10.06,-14.38 17.36,-14.76m-56.74 -237.69l0 175.59m0 0c1.48,19.15 8.43,29.38 20.85,30.71 9.07,1.22 15.25,6.76 18.53,16.63 4.28,9.46 10.06,14.38 17.36,14.76"/>
   <path class="fil1" d="M3.51 444.74l0 -152.95m0 0c1.22,-16.68 6.95,-25.6 17.19,-26.75 7.48,-1.06 12.57,-5.89 15.28,-14.49 3.53,-8.24 8.3,-12.53 14.32,-12.86m-46.78 -207.05l0 152.95m0 0c1.22,16.68 6.95,25.6 17.19,26.75 7.48,1.06 12.57,5.89 15.28,14.49 3.53,8.24 8.3,12.53 14.32,12.86"/>
   <path class="fil1" d="M3.51 406.18l0 -124.47m0 0c0.92,-13.57 5.26,-20.83 13,-21.77 5.66,-0.86 9.51,-4.79 11.55,-11.79 2.67,-6.71 6.28,-10.19 10.83,-10.46m-35.38 -168.49l0 124.47m0 0c0.92,13.57 5.26,20.83 13,21.77 5.66,0.86 9.51,4.79 11.55,11.79 2.67,6.71 6.28,10.19 10.83,10.46"/>
   <polygon class="fil2" points="15.21,235.48 32.94,237.69 15.21,239.9 7.19,237.69 "/>
   <path class="fil3" d="M28.07 227.23c-2.05,-7 -5.9,-10.93 -11.55,-11.79 -7.74,-0.94 -12.08,-8.2 -13,-21.77l0 88.04c0.92,-13.57 5.26,-20.83 13,-21.77 5.66,-0.86 9.51,-4.79 11.55,-11.79 2.67,-6.71 6.28,-10.19 10.83,-10.46 -4.55,-0.27 -8.16,-3.76 -10.83,-10.46zm-20.87 10.46l8.02 -2.21 17.73 2.21 -17.73 2.21 -8.02 -2.21z"/>
   <path class="fil4" d="M16.51 215.44c5.66,0.86 9.51,4.79 11.55,11.79 2.67,6.71 6.28,10.19 10.83,10.46 -4.55,0.27 -8.16,3.76 -10.83,10.46 -2.05,7 -5.9,10.93 -11.55,11.79 -7.74,0.94 -12.08,8.2 -13,21.77l0 18.08c1.48,-19.15 8.43,-29.38 20.85,-30.71 9.07,-1.22 15.25,-6.76 18.53,-16.63 4.28,-9.46 10.06,-14.38 17.36,-14.76 -7.3,-0.38 -13.09,-5.3 -17.36,-14.76 -3.28,-9.87 -9.46,-15.41 -18.53,-16.63 -12.42,-1.33 -19.36,-11.57 -20.85,-30.71l0 18.08c0.92,13.57 5.26,20.83 13,21.77z"/>
   <path class="fil5" d="M16.51 215.44c5.66,0.86 9.51,4.79 11.55,11.79 2.67,6.71 6.28,10.19 10.83,10.46 -4.55,0.27 -8.16,3.76 -10.83,10.46 -2.05,7 -5.9,10.93 -11.55,11.79 -7.74,0.94 -12.08,8.2 -13,21.77l0 10.07c1.22,-16.68 6.95,-25.6 17.19,-26.75 7.48,-1.06 12.57,-5.89 15.28,-14.49 3.53,-8.24 8.3,-12.53 14.32,-12.86 -6.02,-0.33 -10.79,-4.62 -14.32,-12.86 -2.7,-8.6 -7.8,-13.43 -15.28,-14.49 -10.24,-1.16 -15.97,-10.08 -17.19,-26.75l0 10.07c0.92,13.57 5.26,20.83 13,21.77z"/>
  </g>
 </g>
</svg>
