<?xml version="1.0" encoding="UTF-8"?>
<!DOCTYPE svg PUBLIC "-//W3C//DTD SVG 1.1//EN" "http://www.w3.org/Graphics/SVG/1.1/DTD/svg11.dtd">
<!-- Creator: CorelDRAW 2019 (64 Bit) -->
<svg xmlns="http://www.w3.org/2000/svg" xml:space="preserve" width="34.2124mm" height="559.54mm" version="1.1" style="shape-rendering:geometricPrecision; text-rendering:geometricPrecision; image-rendering:optimizeQuality; fill-rule:evenodd; clip-rule:evenodd"
viewBox="0 0 69.66 1139.28"
 xmlns:xlink="http://www.w3.org/1999/xlink">
 <defs>
  <style type="text/css">
   <![CDATA[
    .fil1 {fill:none}
    .fil3 {fill:#28282A}
    .fil4 {fill:url(#id0)}
    .fil0 {fill:url(#id1)}
    .fil5 {fill:url(#id2)}
    .fil2 {fill:url(#id3)}
   ]]>
  </style>
  <linearGradient id="id0" gradientUnits="userSpaceOnUse" x1="16.36" y1="530.52" x2="51.54" y2="560.55">
   <stop offset="0" style="stop-opacity:1; stop-color:#B31279"/>
   <stop offset="1" style="stop-opacity:1; stop-color:#540080"/>
  </linearGradient>
  <linearGradient id="id1" gradientUnits="userSpaceOnUse" x1="2.29" y1="8.78" x2="2.26" y2="1139.28">
   <stop offset="0" style="stop-opacity:1; stop-color:#EDCF18"/>
   <stop offset="0.478431" style="stop-opacity:1; stop-color:#28282A"/>
   <stop offset="1" style="stop-opacity:1; stop-color:#EDCF18"/>
  </linearGradient>
  <linearGradient id="id2" gradientUnits="userSpaceOnUse" x1="13.53" y1="538.6" x2="41.12" y2="559.2">
   <stop offset="0" style="stop-opacity:1; stop-color:#EDCF18"/>
   <stop offset="1" style="stop-opacity:1; stop-color:#B31279"/>
  </linearGradient>
  <radialGradient id="id3" gradientUnits="userSpaceOnUse" gradientTransform="matrix(3.56 -1.53983 2.19495 -4.41875 -1251 3087)" cx="0.37" cy="569.59" r="178.68" fx="0.37" fy="569.59">
   <stop offset="0" style="stop-opacity:1; stop-color:#EDCF18"/>
   <stop offset="0.34902" style="stop-opacity:1; stop-color:#EDCF18"/>
   <stop offset="0.619608" style="stop-opacity:1; stop-color:#B31279"/>
   <stop offset="1" style="stop-opacity:1; stop-color:#540080"/>
  </radialGradient>
 </defs>
 <g id="Camada_x0020_1">
  <metadata id="CorelCorpID_0Corel-Layer"/>
  <rect class="fil0" x="-0" y="-0" width="4.07" height="1139.28"/>
  <g id="_2233781638128">
   <path class="fil1" d="M3.87 845.26l0 -203.61m0 0c1.72,-22.2 9.78,-34.07 24.17,-35.62 10.52,-1.41 17.68,-7.84 21.48,-19.28 4.96,-10.97 11.67,-16.67 20.13,-17.11m-65.79 -275.62l0 203.61m0 0c1.72,22.2 9.78,34.07 24.17,35.62 10.52,1.41 17.68,7.84 21.48,19.28 4.96,10.97 11.67,16.67 20.13,17.11"/>
   <path class="fil1" d="M3.87 809.73l0 -177.36m0 0c1.42,-19.34 8.06,-29.68 19.93,-31.02 8.67,-1.23 14.58,-6.83 17.71,-16.8 4.09,-9.55 9.62,-14.52 16.6,-14.91m-54.25 -240.09l0 177.36m0 0c1.42,19.34 8.06,29.68 19.93,31.02 8.67,1.23 14.58,6.83 17.71,16.8 4.09,9.55 9.62,14.52 16.6,14.91"/>
   <path class="fil1" d="M3.87 765.02l0 -144.33m0 0c1.07,-15.74 6.1,-24.15 15.07,-25.25 6.56,-1 11.03,-5.56 13.4,-13.67 3.09,-7.78 7.28,-11.82 12.56,-12.13m-41.03 -195.38l0 144.33m0 0c1.07,15.74 6.1,24.15 15.07,25.25 6.56,1 11.03,5.56 13.4,13.67 3.09,7.78 7.28,11.82 12.56,12.13"/>
   <polygon class="fil2" points="17.44,567.08 37.99,569.64 17.44,572.2 8.14,569.64 "/>
   <path class="fil3" d="M32.34 557.51c-2.37,-8.11 -6.84,-12.67 -13.4,-13.67 -8.98,-1.09 -14,-9.51 -15.07,-25.25l0 102.1c1.07,-15.74 6.1,-24.15 15.07,-25.25 6.56,-1 11.03,-5.56 13.4,-13.67 3.09,-7.78 7.28,-11.82 12.56,-12.13 -5.28,-0.31 -9.46,-4.36 -12.56,-12.13zm-24.21 12.13l9.3 -2.56 20.55 2.56 -20.55 2.56 -9.3 -2.56z"/>
   <path class="fil4" d="M18.94 543.84c6.56,1 11.03,5.56 13.4,13.67 3.09,7.78 7.28,11.82 12.56,12.13 -5.28,0.31 -9.46,4.36 -12.56,12.13 -2.37,8.11 -6.84,12.67 -13.4,13.67 -8.98,1.09 -14,9.51 -15.07,25.25l0 20.97c1.72,-22.2 9.78,-34.07 24.17,-35.62 10.52,-1.41 17.68,-7.84 21.48,-19.28 4.96,-10.97 11.67,-16.67 20.13,-17.11 -8.46,-0.44 -15.17,-6.14 -20.13,-17.11 -3.8,-11.45 -10.96,-17.87 -21.48,-19.28 -14.4,-1.54 -22.45,-13.41 -24.17,-35.62l0 20.97c1.07,15.74 6.1,24.15 15.07,25.25z"/>
   <path class="fil5" d="M18.94 543.84c6.56,1 11.03,5.56 13.4,13.67 3.09,7.78 7.28,11.82 12.56,12.13 -5.28,0.31 -9.46,4.36 -12.56,12.13 -2.37,8.11 -6.84,12.67 -13.4,13.67 -8.98,1.09 -14,9.51 -15.07,25.25l0 11.68c1.42,-19.34 8.06,-29.68 19.93,-31.02 8.67,-1.23 14.58,-6.83 17.72,-16.8 4.09,-9.55 9.62,-14.52 16.6,-14.91 -6.98,-0.38 -12.51,-5.35 -16.6,-14.91 -3.14,-9.97 -9.04,-15.57 -17.72,-16.8 -11.87,-1.34 -18.51,-11.69 -19.93,-31.02l0 11.68c1.07,15.74 6.1,24.15 15.07,25.25z"/>
  </g>
 </g>
</svg>
