<?xml version="1.0" encoding="UTF-8"?>
<!DOCTYPE svg PUBLIC "-//W3C//DTD SVG 1.1//EN" "http://www.w3.org/Graphics/SVG/1.1/DTD/svg11.dtd">
<!-- Creator: CorelDRAW 2018 (64 Bit) -->
<svg xmlns="http://www.w3.org/2000/svg" xml:space="preserve" width="83.3406mm" height="83.4422mm" version="1.1" style="shape-rendering:geometricPrecision; text-rendering:geometricPrecision; image-rendering:optimizeQuality; fill-rule:evenodd; clip-rule:evenodd"
viewBox="0 0 4312.7 4318"
 xmlns:xlink="http://www.w3.org/1999/xlink">
 <defs>
  <style type="text/css">
   <![CDATA[
    .str0 {stroke:black;stroke-width:10.3;stroke-miterlimit:22.9256}
    .str1 {stroke:#B31279;stroke-width:10.3;stroke-miterlimit:22.9256}
    .fil1 {fill:none}
    .fil0 {fill:none;fill-rule:nonzero}
    .fil2 {fill:#B31279}
   ]]>
  </style>
 </defs>
 <g id="Camada_x0020_1">
  <metadata id="CorelCorpID_0Corel-Layer"/>
  <g id="_2140911735200">
   <path class="fil0" d="M4312.7 3575.9c0,407 -330,736.9 -736.9,736.9l-616.6 0 0 -1650.6 555.8 0 83.3 -645.4 -639 0 0 -412c0,-186.9 51.8,-314.1 319.8,-314.1l341.7 -0.2 0 -577.2c-59.2,-7.8 -261.9,-25.4 -498,-25.4 -492.6,0 -829.9,300.7 -829.9,852.9l0 475.9 -557.2 0 0 645.4 557.2 0 0 1650.6 -1555.8 0c-407.1,0 -736.9,-329.9 -736.9,-736.9l0 -2838.8c0,-407 330,-736.9 736.9,-736.9l2838.8 0c407,0 736.9,330 736.9,736.9l0 2838.8 -0.1 0.1z"/>
   <line class="fil1 str0" x1="2292.7" y1="4312.7" x2="2959.1" y2= "4312.8" />
   <path class="fil2 str1" d="M1771 4312.7l666.4 0.1 0 -1650.6 555.8 0 83.3 -645.4 -639 0 0 -412c0,-186.9 51.8,-314.1 319.8,-314.1l341.7 -0.2 0 -577.2c-59.2,-7.8 -261.9,-25.4 -498,-25.4 -492.6,0 -829.9,300.7 -829.9,852.9l0 475.9 -557.2 0 0 645.4 557.2 0 0 1650.6z"/>
  </g>
 </g>
</svg>
