<svg xmlns="http://www.w3.org/2000/svg" width="315" height="315.4" fill-rule="evenodd" clip-rule="evenodd" image-rendering="optimizeQuality" shape-rendering="geometricPrecision" text-rendering="geometricPrecision" viewBox="0 0 4313 4318"><path fill="none" d="M4313 3576c0 407-330 737-737 737h-617V2662h556l83-645h-639v-412c0-187 52-314 320-314h342V713c-59-7-262-25-498-25-493 0-830 301-830 853v476h-557v645h557v1651H737A737 737 0 010 3576V737C0 330 330 0 737 0h2839c407 0 737 330 737 737v2839z"/><path fill="none" stroke="#000" stroke-miterlimit="22.9" stroke-width="10.3" d="M2293 4313h666"/><path fill="#b31279" stroke="#b31279" stroke-miterlimit="22.9" stroke-width="10.3" d="M1771 4313h666V2662h556l83-645h-638v-412c0-187 51-314 319-314h342V713c-59-7-262-25-498-25-493 0-830 301-830 853v476h-557v645h557v1651z"/></svg>