<?xml version="1.0" encoding="UTF-8"?>
<!DOCTYPE svg PUBLIC "-//W3C//DTD SVG 1.1//EN" "http://www.w3.org/Graphics/SVG/1.1/DTD/svg11.dtd">
<!-- Creator: CorelDRAW 2019 (64 Bit) -->
<svg xmlns="http://www.w3.org/2000/svg" xml:space="preserve" width="83.3422mm" height="83.3417mm" version="1.1" style="shape-rendering:geometricPrecision; text-rendering:geometricPrecision; image-rendering:optimizeQuality; fill-rule:evenodd; clip-rule:evenodd"
viewBox="0 0 533.55 533.54"
 xmlns:xlink="http://www.w3.org/1999/xlink">
 <defs>
  <style type="text/css">
   <![CDATA[
    .fil0 {fill:#202022;fill-rule:nonzero}
   ]]>
  </style>
 </defs>
 <g id="Camada_x0020_1">
  <metadata id="CorelCorpID_0Corel-Layer"/>
  <path class="fil0" d="M533.55 442.38c0,50.35 -40.82,91.17 -91.17,91.17l-76.28 0 0 -204.2 68.76 0 10.3 -79.84 -79.05 0 0 -50.97c0,-23.12 6.41,-38.86 39.56,-38.86l42.27 -0.02 0 -71.41c-7.32,-0.97 -32.4,-3.14 -61.61,-3.14 -60.94,0 -102.67,37.2 -102.67,105.52l0 58.87 -68.93 0 0 79.84 68.93 0 0 204.2 -192.47 0c-50.36,0 -91.17,-40.81 -91.17,-91.17l0 -351.2c0,-50.35 40.82,-91.17 91.17,-91.17l351.2 0c50.35,0 91.17,40.83 91.17,91.17l0 351.2z"/>
 </g>
</svg>
