<?xml version="1.0" encoding="UTF-8"?>
<!DOCTYPE svg PUBLIC "-//W3C//DTD SVG 1.1//EN" "http://www.w3.org/Graphics/SVG/1.1/DTD/svg11.dtd">
<!-- Creator: CorelDRAW 2018 (64 Bit) -->
<svg xmlns="http://www.w3.org/2000/svg" xml:space="preserve" width="83.3406mm" height="83.3422mm" version="1.1" style="shape-rendering:geometricPrecision; text-rendering:geometricPrecision; image-rendering:optimizeQuality; fill-rule:evenodd; clip-rule:evenodd"
viewBox="0 0 20751.5 20751.8"
 xmlns:xlink="http://www.w3.org/1999/xlink">
 <defs>
  <style type="text/css">
   <![CDATA[
    .fil0 {fill:url(#id0);fill-rule:nonzero}
   ]]>
  </style>
  <linearGradient id="id0" gradientUnits="userSpaceOnUse" x1="-2496.4" y1="-5409.1" x2="22818.5" y2="25058.4">
   <stop offset="0" style="stop-opacity:1; stop-color:#EDCF18"/>
   <stop offset="0.388235" style="stop-opacity:1; stop-color:#B31279"/>
   <stop offset="0.619608" style="stop-opacity:1; stop-color:#B31279"/>
   <stop offset="1" style="stop-opacity:1; stop-color:#540080"/>
  </linearGradient>
 </defs>
 <g id="Camada_x0020_1">
  <metadata id="CorelCorpID_0Corel-Layer"/>
  <path class="fil0" d="M20751.1 17205.9c0,1958.3 -1587.6,3545.9 -3545.9,3545.9l-2966.8 0 0 -7942.1 2674.3 0 400.6 -3105.3 -3074.6 0 0 -1982.4c0,-899.2 249.3,-1511.4 1538.6,-1511.4l1644 -0.8 0 -2777.4c-284.7,-37.7 -1260.2,-122.1 -2396.3,-122.1 -2370.2,0 -3993.2,1446.9 -3993.2,4104.1l0 2289.7 -2681 0 0 3105.3 2681 0 0 7942.1 -7485.9 0c-1958.7,0 -3545.9,-1587.3 -3545.9,-3545.9l0 -13659.6c0,-1958.3 1587.6,-3545.9 3545.9,-3545.9l13659.6 0c1958.3,0 3545.9,1588 3545.9,3545.9l0 13659.6 -0.4 0.4z"/>
 </g>
</svg>
