<?xml version="1.0" encoding="UTF-8"?>
<!DOCTYPE svg PUBLIC "-//W3C//DTD SVG 1.1//EN" "http://www.w3.org/Graphics/SVG/1.1/DTD/svg11.dtd">
<!-- Creator: CorelDRAW 2018 (64 Bit) -->
<svg xmlns="http://www.w3.org/2000/svg" xml:space="preserve" width="83.3406mm" height="83.4422mm" version="1.1" style="shape-rendering:geometricPrecision; text-rendering:geometricPrecision; image-rendering:optimizeQuality; fill-rule:evenodd; clip-rule:evenodd"
viewBox="0 0 4273.8 4279"
 xmlns:xlink="http://www.w3.org/1999/xlink">
 <defs>
  <style type="text/css">
   <![CDATA[
    .str0 {stroke:black;stroke-width:10.3;stroke-miterlimit:22.9256}
    .str1 {stroke:#EDCF18;stroke-width:10.3;stroke-miterlimit:22.9256}
    .fil1 {fill:none}
    .fil0 {fill:none;fill-rule:nonzero}
    .fil2 {fill:#EDCF18}
   ]]>
  </style>
 </defs>
 <g id="Camada_x0020_1">
  <metadata id="CorelCorpID_0Corel-Layer"/>
  <g id="_2139179180816">
   <path class="fil0" d="M4273.7 3543.6c0,403.3 -327,730.3 -730.3,730.3l-611 0 0 -1635.7 550.8 0 82.5 -639.5 -633.2 0 0 -408.3c0,-185.2 51.3,-311.3 316.9,-311.3l338.6 -0.2 0 -572c-58.6,-7.8 -259.5,-25.2 -493.5,-25.2 -488.1,0 -822.4,298 -822.4,845.2l0 471.6 -552.1 0 0 639.5 552.1 0 0 1635.7 -1541.7 0c-403.4,0 -730.3,-326.9 -730.3,-730.3l0 -2813.2c0,-403.3 327,-730.3 730.3,-730.3l2813.2 0c403.3,0 730.3,327.1 730.3,730.3l0 2813.2 -0.1 0.1z"/>
   <line class="fil1 str0" x1="2272" y1="4273.8" x2="2932.4" y2= "4273.9" />
   <path class="fil2 str1" d="M1755 4273.8l660.4 0.1 0 -1635.7 550.8 0 82.5 -639.5 -633.2 0 0 -408.3c0,-185.2 51.3,-311.3 316.9,-311.3l338.6 -0.2 0 -572c-58.6,-7.8 -259.5,-25.2 -493.5,-25.2 -488.1,0 -822.4,298 -822.4,845.2l0 471.6 -552.1 0 0 639.5 552.1 0 0 1635.7z"/>
  </g>
 </g>
</svg>
