<svg xmlns="http://www.w3.org/2000/svg" width="315" height="315.4" fill-rule="evenodd" clip-rule="evenodd" image-rendering="optimizeQuality" shape-rendering="geometricPrecision" text-rendering="geometricPrecision" viewBox="0 0 4274 4279"><path fill="none" d="M4274 3544c0 403-327 730-731 730h-611V2638h551l83-639h-634l1-409c0-185 51-311 316-311h339V707c-59-8-259-25-493-25-489 0-823 298-823 845v471l-552 1v639h552v1636H730A730 730 0 010 3543V730C0 327 327 0 730 0h2814c403 0 730 327 730 730v2813z"/><path fill="none" stroke="#000" stroke-miterlimit="22.9" stroke-width="10.3" d="M2272 4274h660"/><path fill="#edcf18" stroke="#edcf18" stroke-miterlimit="22.9" stroke-width="10.3" d="M1755 4274h660V2638h551l83-639h-634l1-409c0-185 51-311 316-311h339V707c-59-8-259-25-493-25-489 0-823 298-823 845v472h-552v639h552v1636z"/></svg>