<?xml version="1.0" encoding="UTF-8"?>
<!DOCTYPE svg PUBLIC "-//W3C//DTD SVG 1.1//EN" "http://www.w3.org/Graphics/SVG/1.1/DTD/svg11.dtd">
<!-- Creator: CorelDRAW 2018 (64 Bit) -->
<svg xmlns="http://www.w3.org/2000/svg" xml:space="preserve" width="83.3406mm" height="83.3422mm" version="1.1" style="shape-rendering:geometricPrecision; text-rendering:geometricPrecision; image-rendering:optimizeQuality; fill-rule:evenodd; clip-rule:evenodd"
viewBox="0 0 18406.1 18406.4"
 xmlns:xlink="http://www.w3.org/1999/xlink">
 <defs>
  <style type="text/css">
   <![CDATA[
    .fil0 {fill:#EDCF18;fill-rule:nonzero}
   ]]>
  </style>
 </defs>
 <g id="Camada_x0020_1">
  <metadata id="CorelCorpID_0Corel-Layer"/>
  <path class="fil0" d="M18405.7 15261.2c0,1737 -1408.2,3145.2 -3145.2,3145.2l-2631.5 0 0 -7044.5 2372.1 0 355.3 -2754.3 -2727.1 0 0 -1758.4c0,-797.6 221.1,-1340.6 1364.7,-1340.6l1458.2 -0.7 0 -2463.5c-252.5,-33.5 -1117.7,-108.3 -2125.4,-108.3 -2102.3,0 -3541.9,1283.3 -3541.9,3640.2l0 2030.9 -2378 0 0 2754.3 2378 0 0 7044.5 -6639.8 0c-1737.3,0 -3145.2,-1407.9 -3145.2,-3145.2l0 -12115.7c0,-1737 1408.2,-3145.2 3145.2,-3145.2l12115.7 0c1737,0 3145.2,1408.6 3145.2,3145.2l0 12115.7 -0.3 0.4z"/>
 </g>
</svg>
