<?xml version="1.0" encoding="UTF-8"?>
<!DOCTYPE svg PUBLIC "-//W3C//DTD SVG 1.1//EN" "http://www.w3.org/Graphics/SVG/1.1/DTD/svg11.dtd">
<!-- Creator: CorelDRAW 2018 (64 Bit) -->
<svg xmlns="http://www.w3.org/2000/svg" xml:space="preserve" width="83.7703mm" height="83.3422mm" version="1.1" style="shape-rendering:geometricPrecision; text-rendering:geometricPrecision; image-rendering:optimizeQuality; fill-rule:evenodd; clip-rule:evenodd"
viewBox="0 0 2967.6 2952.5"
 xmlns:xlink="http://www.w3.org/1999/xlink">
 <defs>
  <style type="text/css">
   <![CDATA[
    .fil0 {fill:none;fill-rule:nonzero}
    .fil2 {fill:#B31279}
    .fil1 {fill:#B31279;fill-rule:nonzero}
   ]]>
  </style>
 </defs>
 <g id="Camada_x0020_1">
  <metadata id="CorelCorpID_0Corel-Layer"/>
  <g id="_2139173444768">
   <path class="fil0" d="M2952.3 2448c0,278.6 -225.9,504.5 -504.5,504.5 -33.4,0 -361.5,-0.1 -1943.3,-0.1 -278.7,0 -504.5,-225.8 -504.5,-504.5l0 -1943.4c0,-278.6 225.9,-504.5 504.5,-504.5l1943.4 0c278.6,0 504.5,225.9 504.5,504.5l0 1943.4 -0.1 0.1zm-1428.1 -744.3c10.4,-32 31.7,-95.5 59.5,-168.8l-260.6 22c0.2,156 14,303.4 63.8,340.4 65.7,47.5 125.6,-159.7 137.3,-193.6zm-227.7 -144.5l-463.1 39.1c-62.6,119.8 -113.9,220.4 -139.4,267.4 -124.5,223.6 -196.9,299.4 -228,282.1 -38.1,-21.2 2.4,-319.8 47.8,-597.6l-454.7 -84.9 29.5 -5.5c1.7,-2.9 610.8,-1039.3 520.7,-365.1 -6.2,45 -24.8,150.7 -45.7,276.4l227.2 -42.4 156.1 13.2c147.2,-273.1 306.5,-545.2 361.5,-539.4 42,4.4 58,107.1 32.6,350.4 -1.9,39.4 -8.5,123.2 -13.2,221.2l310.6 26.2c54.8,-125.2 119.9,-243.2 176.8,-263.1 78.9,-27.5 104.7,138 111.9,184 3.2,19.7 10.8,59.7 22.3,105.3l234.6 19.8c32.1,-76.8 60.7,-104.1 82.8,-105 29.4,-1.2 56.3,42.8 73.9,88.3 4,10.4 9.8,21.4 17.2,31.3l50 4.2 -43.5 3.7c12.7,14.1 29.1,24.4 48.4,24.8 33.1,0.8 53.9,-29.8 63.8,-57.3 11,-30.3 34.3,-64.5 69.1,-69 31,-4 56.9,19.4 73.2,43.3 9.9,14.5 20.1,31.2 31.5,44.2 16.2,18.5 27,14.9 56.6,-11 73,-63.9 97.2,-84.7 186.3,-2.8l0 0c-87.7,-80.6 -113,-56.9 -184.1,5.3 -31.6,27.6 -43.3,31.3 -61.3,10.6 -11.7,-13.4 -21.2,-29.7 -32.4,-44 -14.4,-21.3 -42.6,-44.1 -67.5,-37.8 -34.4,4.5 -53.7,34.7 -64.2,63.7 -11.9,33.2 -31.6,69.9 -72.1,69 -23.6,-0.5 -46.6,-17.3 -63.3,-37.7l-163.3 13.8c-4.7,13.2 -9.6,27.6 -14.6,43.3 -22.9,71.7 -46.8,118.5 -70.8,141.3 -15.7,14.9 -31.6,19.9 -47.4,15.3 -15.3,-4.4 -30.1,-18 -44.2,-40.4 -19.1,-30.3 -39.9,-76.7 -59.1,-139.6l-346.8 29.3c-29.8,75.8 -52.7,142.5 -63.4,175.4l-14.6 -5 14.6 5.1c-44.5,129.3 -85.6,209.2 -120.7,242.4 -21.5,20.4 -41.1,24 -58.4,11.6 -16,-11.6 -29.2,-37.8 -39.1,-78.1 -16.6,-67.9 -26.2,-177.3 -24.1,-325.5zm1030.8 -123.9c-16.3,-42.2 -37.6,-78.1 -60.6,-77.2 -18.3,0.7 -40.1,22.5 -67.7,89.6l141.3 11.9c-5.5,-8.2 -10,-16.5 -13,-24.4zm-2238.6 24.6l15.8 -3c-1,1.2 -1.5,1.4 -1.1,0.2l-14.7 2.7zm15.8 -3l439 -81.9c22.4,-129.1 41.9,-236.1 49,-282.2 42.6,-497.3 -460.2,332.5 -487.9,364.2zm1803.9 -132.4c-7.8,-36.1 -26.1,-173.6 -87.1,-157 -51.8,18.1 -111.8,121.3 -163.6,234.5l270.2 22.8c-7.1,-30.7 -13.6,-64.1 -19.4,-100.3l-0 0zm247.9 198c4.2,-13.2 8.4,-25.5 12.5,-36.9l-198.1 16.7c23.2,72.2 54.4,139.3 90.9,149.9 52.6,15.3 84.4,-97.5 94.7,-129.7zm-832.8 -371.1c22.2,-235.7 -2.4,-269.1 -33.3,-273.8 -50.3,-5.3 -188.6,224.1 -321.1,466.3l335.1 28.3c4.4,-68.1 10.8,-141.7 19.4,-220.7l0 0zm-646.2 705c25.5,-46.9 73.9,-141.8 133.2,-256.1l-19.8 1.7 -256.6 -47.9c-37.5,242.7 -67.5,489.9 -32.2,510.1 25.5,14.2 54.4,9.6 175.4,-207.7z"/>
   <g>
    <path class="fil1" d="M2415 1429.7c11.2,29.4 36.7,63.2 72.1,64 33.1,0.8 53.9,-29.8 63.8,-57.3l7.2 2.5c-11.9,33.2 -31.6,69.9 -72.1,69 -36.7,-0.8 -72.2,-41.1 -84.3,-72.8l13.3 -5.5z"/>
    <path class="fil1" d="M666.9 1092.6c44.2,-515.9 -498.8,396.8 -489.1,364.4l-14.7 2.7c1.7,-2.9 610.8,-1039.3 520.7,-365.1l-16.9 -2z"/>
    <path class="fil1" d="M2001.4 1321.2c9.7,60.2 61.2,309.6 134.6,330.9 52.6,15.3 84.4,-97.5 94.7,-129.7l14.1 5c-22.9,71.7 -46.8,118.5 -70.8,141.3 -15.7,14.9 -31.6,19.9 -47.4,15.3 -15.3,-4.4 -30.1,-18 -44.2,-40.4 -34.1,-54.2 -74,-160 -99.6,-319.2l18.5 -3.2z"/>
    <path class="fil1" d="M1415.4 1152.8c-5.9,121.8 -56.9,668.2 46,744.4 65.7,47.5 125.6,-159.7 137.3,-193.6l14.6 5.1c-44.5,129.3 -85.6,209.2 -120.7,242.4 -21.5,20.4 -41.1,24 -58.4,11.6 -16,-11.6 -29.2,-37.8 -39.1,-78.1 -29.3,-119.9 -36.6,-369.2 2.9,-733.4l17.4 1.5z"/>
    <path class="fil1" d="M683.8 1094.7c-20.1,146.3 -171.6,932.8 -107.4,969.3 25.5,14.2 54.4,9.6 175.4,-207.7l16.6 9.3c-124.5,223.6 -196.9,299.4 -228,282.1 -65.7,-36.6 102.3,-898.4 126.4,-1055.1l16.9 2z"/>
    <polygon class="fil2" points="865.2,1328.7 2482.2,1465.3 865.2,1601.8 133.6,1465.3 "/>
    <path class="fil1" d="M1598.6 1703.7c33.2,-102.4 178.2,-527.1 290.9,-566.5 78.9,-27.5 104.7,138 111.9,184l-18.5 3.2c-7.8,-36.1 -26.1,-173.6 -87.1,-157 -107.6,37.6 -250.6,442.5 -282.6,541.3l-14.6 -5z"/>
    <path class="fil1" d="M751.8 1856.3c97.6,-180 532.4,-1064.2 631,-1053.9 42,4.4 58,107.1 32.6,350.4l-17.4 -1.5c22.2,-235.7 -2.4,-269.1 -33.3,-273.8 -95.3,-10 -506.3,822.3 -596.3,988.2l-16.6 -9.3z"/>
    <path class="fil1" d="M2230.8 1522.4c43.3,-135.6 82.1,-179.9 110.4,-181 29.4,-1.2 56.3,42.8 73.9,88.3l-13.3 5.5c-16.3,-42.2 -37.6,-78.1 -60.6,-77.2 -24.1,1 -54.6,38.8 -96.2,169.4l-14.1 -5z"/>
    <path class="fil1" d="M2550.9 1436.5c11,-30.3 34.3,-64.5 69.1,-69 31,-4 56.9,19.4 73.2,43.3l-3.4 2.4c-14.4,-21.3 -42.6,-44.1 -67.5,-37.8 -34.4,4.5 -53.7,34.7 -64.2,63.7l-7.2 -2.5z"/>
    <path class="fil1" d="M2693.2 1410.7c9.9,14.5 20.1,31.2 31.5,44.2 16.2,18.5 27,14.9 56.6,-11 73,-63.9 97.2,-84.7 186.3,-2.8l0 0c-87.7,-80.6 -113,-56.9 -184.1,5.3 -31.6,27.6 -43.3,31.3 -61.3,10.6 -11.7,-13.4 -21.2,-29.7 -32.4,-44l3.4 -2.4z"/>
   </g>
  </g>
 </g>
</svg>
