<svg xmlns="http://www.w3.org/2000/svg" width="316.6" height="315" fill-rule="evenodd" clip-rule="evenodd" image-rendering="optimizeQuality" shape-rendering="geometricPrecision" text-rendering="geometricPrecision" viewBox="0 0 2968 2953"><defs><style>.fil1{fill:#b31279;fill-rule:nonzero}</style></defs><g id="Camada_x0020_1"><g id="_2139173444768"><path fill="none" fill-rule="nonzero" d="M2952 2448c0 279-226 505-504 505l-1943-1A504 504 0 010 2448V505C0 226 226 0 505 0h1943c279 0 504 226 504 505v1943zm-1428-744c11-32 32-96 60-169l-261 22c0 156 14 303 64 340 66 48 126-159 137-193zm-227-145l-464 39c-62 120-113 221-139 268-124 223-197 299-228 282-38-21 2-320 48-598l-455-85 30-5c1-3 610-1040 520-365-6 45-24 150-45 276l227-42 156 13c147-273 306-545 361-540 42 5 58 108 33 351l-13 221 310 26c55-125 120-243 177-263 79-27 105 138 112 184 3 20 11 60 22 105l235 20c32-77 61-104 83-105 29-1 56 43 74 89 4 10 10 21 17 31l50 4-44 4c13 14 30 24 49 25 33 0 54-30 64-58 11-30 34-64 69-69 31-4 57 20 73 44 10 14 20 31 31 44 17 18 27 15 57-11 73-64 97-85 186-3-87-81-113-57-184 5-31 28-43 32-61 11-12-14-21-30-32-44-15-21-43-44-68-38-34 5-54 35-64 64-12 33-32 70-72 69-24-1-47-18-64-38l-163 14-15 43c-22 72-46 119-70 141-16 15-32 20-48 16-15-5-30-18-44-41-19-30-40-76-59-139l-347 29c-30 76-53 143-63 175l-15-5 15 6c-45 129-86 209-121 242-21 20-41 24-58 12-16-12-30-38-39-79-17-67-27-177-25-325zm1030-124c-16-42-37-78-60-77-19 1-40 23-68 90l141 12c-5-9-10-17-13-25zM89 1460l16-3h-2l-14 3zm16-3l439-82 49-282c42-498-461 332-488 364zm1803-133c-7-36-26-173-87-157-51 19-111 122-163 235l270 23c-7-31-14-64-19-101zm248 198l13-36-198 16c23 72 54 140 91 150 52 15 84-97 94-130zm-832-371c22-235-3-269-34-273-50-6-188 224-321 466l335 28c5-68 11-142 20-221zm-647 705c26-47 74-141 134-256l-20 2-257-48c-37 243-67 490-32 510 25 14 54 10 175-208z"/><path d="M2415 1430c11 29 37 63 72 64 33 1 54-30 64-58l7 3c-12 33-32 70-72 69-37-1-72-41-84-73l13-5zM667 1093c44-516-499 396-489 364l-15 3c2-3 611-1040 521-365l-17-2zM2001 1321c10 60 62 310 135 331 53 15 84-97 95-130l14 5c-23 72-47 119-71 142-16 15-32 20-47 15-16-4-31-18-45-40-34-55-74-160-99-320l18-3zM1415 1153c-5 122-56 668 46 744 66 48 126-160 138-193l14 5c-44 129-85 209-120 242-22 20-42 24-59 12-16-12-29-38-39-78-29-120-37-370 3-734l17 2z" class="fil1"/><path d="M684 1095c-20 146-172 933-108 969 26 14 55 10 176-208l16 10c-124 223-197 299-228 282-65-37 103-899 127-1055l17 2z" class="fil1"/><path fill="#b31279" d="M865 1329l1617 136-1617 137-731-137z"/><path d="M1599 1704c33-103 178-527 290-567 79-27 105 138 112 184l-18 3c-8-36-26-173-87-157-108 38-251 443-283 542l-14-5zM752 1856c97-180 532-1064 631-1054 42 5 58 107 32 351l-17-2c22-235-2-269-33-274-96-10-507 823-597 989l-16-10zM2231 1522c43-135 82-179 110-181 30-1 57 43 74 89l-13 5c-16-42-38-78-61-77-24 1-54 39-96 169l-14-5zM2551 1437c11-31 34-65 69-69 31-4 57 19 73 43l-3 2c-15-21-43-44-68-38-34 5-53 35-64 64l-7-2z" class="fil1"/><path d="M2693 1411c10 14 20 31 32 44 16 18 27 15 56-11 73-64 97-85 187-3-88-80-113-57-185 5-31 28-43 32-61 11-12-13-21-30-32-44l3-2z" class="fil1"/></g></g></svg>