<?xml version="1.0" encoding="UTF-8"?>
<!DOCTYPE svg PUBLIC "-//W3C//DTD SVG 1.1//EN" "http://www.w3.org/Graphics/SVG/1.1/DTD/svg11.dtd">
<!-- Creator: CorelDRAW 2018 (64 Bit) -->
<svg xmlns="http://www.w3.org/2000/svg" xml:space="preserve" width="83.7703mm" height="83.3422mm" version="1.1" style="shape-rendering:geometricPrecision; text-rendering:geometricPrecision; image-rendering:optimizeQuality; fill-rule:evenodd; clip-rule:evenodd"
viewBox="0 0 2949.3 2934.2"
 xmlns:xlink="http://www.w3.org/1999/xlink">
 <defs>
  <style type="text/css">
   <![CDATA[
    .fil0 {fill:none;fill-rule:nonzero}
    .fil2 {fill:#EDCF18}
    .fil1 {fill:#EDCF18;fill-rule:nonzero}
   ]]>
  </style>
 </defs>
 <g id="Camada_x0020_1">
  <metadata id="CorelCorpID_0Corel-Layer"/>
  <g id="_2139180768224">
   <path class="fil0" d="M2934.1 2432.8c0,276.9 -224.5,501.4 -501.4,501.4 -33.2,0 -359.3,-0.1 -1931.4,-0.1 -277,0 -501.4,-224.4 -501.4,-501.4l0 -1931.4c0,-276.9 224.5,-501.4 501.4,-501.4l1931.4 0c276.9,0 501.4,224.5 501.4,501.4l0 1931.4 -0.1 0.1zm-1419.3 -739.7c10.3,-31.8 31.5,-94.9 59.1,-167.8l-259 21.9c0.2,155 13.9,301.6 63.5,338.3 65.3,47.2 124.8,-158.7 136.4,-192.4zm-226.3 -143.6l-460.3 38.9c-62.2,119 -113.2,219 -138.5,265.7 -123.7,222.2 -195.7,297.5 -226.5,280.4 -37.8,-21.1 2.4,-317.9 47.5,-593.9l-451.9 -84.4 29.3 -5.5c1.7,-2.9 607,-1032.9 517.5,-362.8 -6.1,44.7 -24.6,149.7 -45.5,274.7l225.8 -42.1 155.1 13.1c146.3,-271.5 304.6,-541.8 359.2,-536.1 41.7,4.4 57.7,106.5 32.4,348.2 -1.9,39.1 -8.5,122.5 -13.1,219.8l308.6 26.1c54.5,-124.4 119.2,-241.7 175.7,-261.4 78.4,-27.4 104,137.1 111.2,182.9 3.1,19.6 10.8,59.3 22.1,104.7l233.2 19.7c31.9,-76.3 60.3,-103.4 82.3,-104.3 29.2,-1.2 55.9,42.5 73.4,87.8 4,10.4 9.7,21.3 17.1,31.1l49.7 4.2 -43.3 3.7c12.6,14 28.9,24.2 48.1,24.7 32.9,0.7 53.5,-29.6 63.4,-56.9 10.9,-30.1 34.1,-64.1 68.7,-68.6 30.8,-4 56.5,19.2 72.7,43 9.8,14.4 20,31 31.3,44 16.1,18.4 26.9,14.8 56.3,-10.9 72.6,-63.5 96.6,-84.2 185.2,-2.8l0 0c-87.1,-80.1 -112.3,-56.5 -183,5.3 -31.4,27.4 -43,31.1 -61,10.6 -11.6,-13.3 -21.1,-29.5 -32.2,-43.8 -14.3,-21.1 -42.3,-43.8 -67.1,-37.5 -34.2,4.4 -53.3,34.5 -63.8,63.3 -11.9,33 -31.4,69.4 -71.6,68.5 -23.4,-0.5 -46.4,-17.2 -63,-37.4l-162.3 13.7c-4.7,13.1 -9.5,27.4 -14.5,43.1 -22.7,71.3 -46.5,117.8 -70.3,140.4 -15.6,14.8 -31.4,19.8 -47.1,15.2 -15.2,-4.4 -29.9,-17.9 -43.9,-40.2 -18.9,-30.1 -39.7,-76.3 -58.7,-138.7l-344.6 29.1c-29.6,75.3 -52.4,141.7 -63,174.3l-14.5 -5 14.5 5.1c-44.2,128.5 -85.1,207.9 -119.9,240.9 -21.4,20.2 -40.9,23.9 -58,11.5 -15.9,-11.5 -29,-37.5 -38.8,-77.6 -16.5,-67.5 -26,-176.2 -24,-323.5zm1024.4 -123.2c-16.2,-42 -37.4,-77.6 -60.3,-76.7 -18.1,0.7 -39.9,22.4 -67.3,89l140.4 11.9c-5.5,-8.1 -9.9,-16.4 -12.9,-24.2zm-2224.8 24.4l15.8 -2.9c-1,1.2 -1.5,1.4 -1.1,0.2l-14.6 2.7zm15.8 -2.9l436.2 -81.4c22.2,-128.3 41.6,-234.7 48.7,-280.5 42.3,-494.2 -457.4,330.5 -484.9,361.9zm1792.8 -131.6c-7.7,-35.9 -26,-172.5 -86.6,-156 -51.5,18 -111.1,120.5 -162.6,233l268.5 22.7c-7,-30.5 -13.5,-63.7 -19.3,-99.7l-0 0zm246.3 196.8c4.2,-13.1 8.3,-25.3 12.4,-36.7l-196.9 16.6c23.1,71.7 54,138.4 90.4,149 52.3,15.2 83.9,-96.9 94.1,-128.9zm-827.6 -368.8c22.1,-234.2 -2.4,-267.4 -33.1,-272.1 -50,-5.2 -187.4,222.7 -319.1,463.4l333 28.1c4.4,-67.6 10.7,-140.8 19.2,-219.4l0 0zm-642.2 700.6c25.3,-46.6 73.4,-140.9 132.4,-254.5l-19.7 1.7 -255.1 -47.6c-37.2,241.2 -67.1,486.9 -32,506.9 25.3,14.1 54.1,9.5 174.3,-206.4z"/>
   <g>
    <path class="fil1" d="M2400.1 1420.9c11.2,29.2 36.5,62.8 71.7,63.6 32.9,0.7 53.5,-29.6 63.4,-56.9l7.2 2.5c-11.9,33 -31.4,69.4 -71.6,68.5 -36.5,-0.8 -71.8,-40.9 -83.8,-72.3l13.2 -5.4z"/>
    <path class="fil1" d="M662.8 1085.9c43.9,-512.8 -495.7,394.3 -486.1,362.1l-14.6 2.7c1.7,-2.9 607,-1032.9 517.5,-362.8l-16.8 -2z"/>
    <path class="fil1" d="M1989.1 1313c9.6,59.8 60.8,307.6 133.8,328.9 52.3,15.2 83.9,-96.9 94.1,-128.9l14 5c-22.7,71.3 -46.5,117.8 -70.3,140.4 -15.6,14.8 -31.4,19.8 -47.1,15.2 -15.2,-4.4 -29.9,-17.9 -43.9,-40.2 -33.9,-53.9 -73.6,-159 -99,-317.3l18.4 -3.2z"/>
    <path class="fil1" d="M1406.6 1145.7c-5.9,121 -56.6,664 45.7,739.8 65.3,47.2 124.8,-158.7 136.4,-192.4l14.5 5.1c-44.2,128.5 -85.1,207.9 -119.9,240.9 -21.4,20.2 -40.9,23.9 -58,11.5 -15.9,-11.5 -29,-37.5 -38.8,-77.6 -29.2,-119.1 -36.4,-366.9 2.9,-728.8l17.3 1.5z"/>
    <path class="fil1" d="M679.6 1087.9c-19.9,145.4 -170.5,927 -106.7,963.3 25.3,14.1 54.1,9.5 174.3,-206.4l16.5 9.3c-123.7,222.2 -195.7,297.5 -226.5,280.4 -65.3,-36.3 101.7,-892.9 125.7,-1048.6l16.8 2z"/>
    <polygon class="fil2" points="859.9,1320.5 2466.9,1456.2 859.9,1591.9 132.7,1456.2 "/>
    <path class="fil1" d="M1588.7 1693.1c33,-101.8 177.1,-523.9 289.1,-563 78.4,-27.4 104,137.1 111.2,182.9l-18.4 3.2c-7.7,-35.9 -26,-172.5 -86.6,-156 -107,37.3 -249,439.8 -280.8,537.9l-14.5 -5z"/>
    <path class="fil1" d="M747.1 1844.8c97,-178.9 529.1,-1057.6 627.1,-1047.4 41.7,4.4 57.7,106.5 32.4,348.2l-17.3 -1.5c22.1,-234.2 -2.4,-267.4 -33.1,-272.1 -94.8,-9.9 -503.2,817.2 -592.6,982.1l-16.5 -9.3z"/>
    <path class="fil1" d="M2217 1513c43,-134.8 81.6,-178.7 109.7,-179.9 29.2,-1.2 55.9,42.5 73.4,87.8l-13.2 5.4c-16.2,-42 -37.4,-77.6 -60.3,-76.7 -24,1 -54.2,38.5 -95.7,168.3l-14 -5z"/>
    <path class="fil1" d="M2535.2 1427.6c10.9,-30.1 34.1,-64.1 68.7,-68.6 30.8,-4 56.5,19.2 72.7,43l-3.3 2.4c-14.3,-21.1 -42.3,-43.8 -67.1,-37.5 -34.2,4.4 -53.3,34.5 -63.8,63.3l-7.2 -2.5z"/>
    <path class="fil1" d="M2676.5 1402c9.8,14.4 20,31 31.3,44 16.1,18.4 26.9,14.8 56.3,-10.9 72.6,-63.5 96.6,-84.2 185.2,-2.8l0 0c-87.1,-80.1 -112.3,-56.5 -183,5.3 -31.4,27.4 -43,31.1 -61,10.6 -11.6,-13.3 -21.1,-29.5 -32.2,-43.8l3.3 -2.4z"/>
   </g>
  </g>
 </g>
</svg>
