<?xml version="1.0" encoding="UTF-8"?>
<!DOCTYPE svg PUBLIC "-//W3C//DTD SVG 1.1//EN" "http://www.w3.org/Graphics/SVG/1.1/DTD/svg11.dtd">
<!-- Creator: CorelDRAW 2019 (64 Bit) -->
<svg xmlns="http://www.w3.org/2000/svg" xml:space="preserve" width="375.893mm" height="181.469mm" version="1.1" style="shape-rendering:geometricPrecision; text-rendering:geometricPrecision; image-rendering:optimizeQuality; fill-rule:evenodd; clip-rule:evenodd"
viewBox="0 0 3858.71 1862.86"
 xmlns:xlink="http://www.w3.org/1999/xlink">
 <defs>
  <style type="text/css">
   <![CDATA[
    .fil1 {fill:black}
    .fil0 {fill:black;fill-rule:nonzero}
    .fil7 {fill:url(#id0)}
    .fil13 {fill:url(#id1)}
    .fil3 {fill:url(#id2);fill-rule:nonzero}
    .fil8 {fill:url(#id3);fill-rule:nonzero}
    .fil2 {fill:url(#id4);fill-rule:nonzero}
    .fil10 {fill:url(#id5);fill-rule:nonzero}
    .fil12 {fill:url(#id6);fill-rule:nonzero}
    .fil9 {fill:url(#id7);fill-rule:nonzero}
    .fil4 {fill:url(#id8);fill-rule:nonzero}
    .fil5 {fill:url(#id9);fill-rule:nonzero}
    .fil11 {fill:url(#id10);fill-rule:nonzero}
    .fil6 {fill:url(#id11);fill-rule:nonzero}
   ]]>
  </style>
  <radialGradient id="id0" gradientUnits="userSpaceOnUse" gradientTransform="matrix(3.56 -1.53983 2.19495 -4.41876 -126 3934)" cx="-757.9" cy="941.36" r="900.88" fx="-757.9" fy="941.36">
   <stop offset="0" style="stop-opacity:1; stop-color:#EDCF18"/>
   <stop offset="0.34902" style="stop-opacity:1; stop-color:#EDCF18"/>
   <stop offset="0.619608" style="stop-opacity:1; stop-color:#B31279"/>
   <stop offset="1" style="stop-opacity:1; stop-color:#540080"/>
  </radialGradient>
  <radialGradient id="id1" gradientUnits="userSpaceOnUse" gradientTransform="matrix(2.78475 -0.0736289 -0.400096 1.1781 -136 -245)" xlink:href="#id0" cx="424.15" cy="1551.57" r="3324.46" fx="424.15" fy="1551.57">
  </radialGradient>
  <linearGradient id="id2" gradientUnits="userSpaceOnUse" x1="100.07" y1="540.29" x2="810.1" y2="540.29">
   <stop offset="0" style="stop-opacity:1; stop-color:#EDCF18"/>
   <stop offset="1" style="stop-opacity:1; stop-color:#EDCF18"/>
  </linearGradient>
  <linearGradient id="id3" gradientUnits="userSpaceOnUse" x1="2023.97" y1="886.26" x2="2563.8" y2="886.26">
   <stop offset="0" style="stop-opacity:1; stop-color:#B31279"/>
   <stop offset="1" style="stop-opacity:1; stop-color:#540080"/>
  </linearGradient>
  <linearGradient id="id4" gradientUnits="userSpaceOnUse" x1="3100.27" y1="949.82" x2="3309.91" y2="949.82">
   <stop offset="0" style="stop-opacity:1; stop-color:#540080"/>
   <stop offset="1" style="stop-opacity:1; stop-color:#540080"/>
  </linearGradient>
  <linearGradient id="id5" gradientUnits="userSpaceOnUse" xlink:href="#id4" x1="2871.17" y1="903.64" x2="3118.12" y2="903.64">
  </linearGradient>
  <linearGradient id="id6" gradientUnits="userSpaceOnUse" x1="3486.38" y1="896.34" x2="3858.71" y2="896.34">
   <stop offset="0" style="stop-opacity:1; stop-color:#540080"/>
   <stop offset="1" style="stop-opacity:1; stop-color:black"/>
  </linearGradient>
  <linearGradient id="id7" gradientUnits="userSpaceOnUse" x1="889.01" y1="769.1" x2="1794.67" y2="769.1">
   <stop offset="0" style="stop-opacity:1; stop-color:#EDCF18"/>
   <stop offset="1" style="stop-opacity:1; stop-color:#B31279"/>
  </linearGradient>
  <linearGradient id="id8" gradientUnits="userSpaceOnUse" xlink:href="#id4" x1="2538.98" y1="996.17" x2="2890.02" y2="996.17">
  </linearGradient>
  <linearGradient id="id9" gradientUnits="userSpaceOnUse" x1="1718.47" y1="1072.84" x2="2043.48" y2="1072.84">
   <stop offset="0" style="stop-opacity:1; stop-color:#B31279"/>
   <stop offset="1" style="stop-opacity:1; stop-color:#B31279"/>
  </linearGradient>
  <linearGradient id="id10" gradientUnits="userSpaceOnUse" xlink:href="#id4" x1="3300.22" y1="861.58" x2="3490.89" y2="861.58">
  </linearGradient>
  <linearGradient id="id11" gradientUnits="userSpaceOnUse" xlink:href="#id2" x1="585.54" y1="1154.24" x2="911.32" y2="1154.24">
  </linearGradient>
 </defs>
 <g id="Camada_x0020_1">
  <metadata id="CorelCorpID_0Corel-Layer"/>
  <g id="_2368419068992">
   <g>
    <path class="fil0" d="M3057.63 840.81c15.07,39.37 49.2,84.72 96.63,85.8 44.32,1 72.22,-39.89 85.48,-76.77l9.69 3.39c-15.98,44.47 -42.3,93.64 -96.61,92.41 -49.2,-1.12 -96.8,-55.12 -113.03,-97.51l17.85 -7.32z"/>
    <path class="fil0" d="M714.77 389.03c59.2,-691.48 -668.47,531.75 -655.48,488.33l-19.71 3.68c2.32,-3.95 818.59,-1392.92 697.85,-489.26l-22.66 -2.74z"/>
    <path class="fil0" d="M2503.31 695.36c12.96,80.69 82.01,414.87 180.45,443.51 70.49,20.51 113.14,-130.67 126.92,-173.87l18.85 6.71c-30.67,96.11 -62.68,158.87 -94.82,189.39 -21.01,19.94 -42.3,26.68 -63.58,20.49 -20.46,-5.95 -40.29,-24.1 -59.18,-54.15 -45.7,-72.69 -99.19,-214.39 -133.46,-427.83l24.82 -4.26z"/>
    <path class="fil0" d="M1717.86 469.73c-7.94,163.2 -76.29,895.47 61.67,997.7 88.1,63.61 168.29,-213.99 183.95,-259.48l19.51 6.87c-59.64,173.32 -114.77,280.39 -161.7,324.85 -28.81,27.29 -55.13,32.22 -78.22,15.56 -21.45,-15.49 -39.15,-50.62 -52.38,-104.69 -39.33,-160.63 -49.08,-494.81 3.89,-982.85l23.29 2.05z"/>
    <path class="fil0" d="M737.43 391.78c-26.9,196.13 -229.97,1250.09 -143.92,1299.1 34.15,19.01 72.9,12.85 235.02,-278.37l22.31 12.52c-166.79,299.61 -263.91,401.24 -305.51,378.09 -88.01,-48.99 137.13,-1204.07 169.45,-1414.08l22.66 2.74z"/>
    <polygon class="fil1" points="980.56,705.38 3147.67,888.43 980.56,1071.48 -0,888.43 "/>
    <path class="fil0" d="M1963.47 1207.94c44.51,-137.22 238.88,-706.48 389.88,-759.17 105.76,-36.91 140.26,184.92 149.95,246.58l-24.82 4.26c-10.45,-48.38 -35.03,-232.64 -116.75,-210.35 -144.23,50.33 -335.8,593.1 -378.71,725.42l-19.55 -6.74z"/>
    <path class="fil0" d="M828.52 1412.51c130.82,-241.23 713.54,-1426.19 845.62,-1412.39 56.27,5.88 77.8,143.58 43.72,469.61l-23.29 -2.05c29.77,-315.86 -3.19,-360.63 -44.63,-367 -127.79,-13.36 -678.54,1102.01 -799.11,1324.34l-22.31 -12.52z"/>
    <path class="fil0" d="M2810.68 965c58.01,-181.77 110.04,-241.04 147.91,-242.58 39.39,-1.59 75.39,57.3 99.04,118.39l-17.85 7.32c-21.9,-56.58 -50.43,-104.66 -81.26,-103.41 -32.35,1.31 -73.12,51.95 -128.99,227l-18.85 -6.71z"/>
    <path class="fil0" d="M3239.73 849.84c14.75,-40.56 46,-86.44 92.62,-92.48 41.6,-5.38 76.22,25.95 98.05,57.97l-4.51 3.19c-19.25,-28.48 -57.05,-59.13 -90.44,-50.62 -46.16,5.98 -71.94,46.55 -86.03,85.32l-9.69 -3.39z"/>
    <path class="fil0" d="M3430.4 815.33c13.24,19.45 26.95,41.85 42.21,59.28 21.72,24.82 36.25,20 75.89,-14.68 97.88,-85.64 130.26,-113.54 249.72,-3.76l0 0c-117.5,-107.97 -151.5,-76.23 -246.78,7.13 -42.29,37 -57.98,41.93 -82.19,14.26 -15.68,-17.92 -28.45,-39.83 -43.36,-59.03l4.51 -3.19z"/>
   </g>
   <path class="fil1" d="M1144.88 1457.95c-2.3,7.81 -3.91,14.36 -4.94,19.53 -0.92,5.17 -1.49,9.42 -1.49,12.75 0,11.03 3.91,18.84 11.61,23.44 7.7,4.6 21.14,6.89 40.1,6.89l10.46 0 -11.03 44.81 -197.85 0 11.15 -44.81 6.09 0c15.51,0 27,-2.99 34.7,-8.96 7.58,-5.86 13.33,-16.54 17.12,-31.83l79.05 -303.33c1.38,-5.4 2.41,-10.92 3.22,-16.66 0.8,-5.75 1.15,-11.38 1.15,-17 0,-10.57 -4.14,-18.04 -12.41,-22.41 -8.27,-4.37 -22.52,-6.55 -42.63,-6.55l-6.43 0 11.03 -44.81 199.23 0 -11.84 44.81 -3.33 0c-16.43,0 -28.72,2.99 -36.88,8.96 -8.27,5.86 -14.36,16.43 -18.38,31.48l-77.67 303.68zm602.41 -209c-5.4,-46.42 -20.34,-82.15 -44.81,-107.2 -24.36,-25.05 -56.41,-37.57 -95.94,-37.57 -24.82,0 -47.91,5.52 -69.17,16.55 -21.14,10.92 -40.21,27.23 -56.99,48.83 -19.76,25.28 -35.16,55.84 -46.07,91.34 -11.03,35.62 -16.55,73.31 -16.55,113.06 0,50.44 11.38,88.93 34.01,115.36 22.64,26.31 55.61,39.52 98.93,39.52 41.82,0 77.44,-12.52 106.86,-37.69 29.53,-25.16 44.35,-55.04 44.35,-89.74 0,-13.44 -4.37,-22.75 -12.98,-27.92 -8.62,-5.17 -26.89,-8.5 -54.69,-10.11l11.15 -44.12 217.04 0 -12.18 44.12c-23.32,0.46 -41.02,6.89 -53.31,19.19 -12.18,12.41 -22.64,35.62 -31.14,69.74l-30.91 126.16 -40.79 0 0 -0.69c-1.72,-21.03 -6.32,-31.48 -13.79,-31.48 -0.69,0 -17,5.29 -49.18,16.09 -32.06,10.69 -64.8,16.09 -98.24,16.09 -61.47,0 -110.76,-20.11 -147.87,-60.32 -37,-40.1 -55.5,-93.3 -55.5,-159.59 0,-37 6.32,-72.84 18.84,-107.66 12.52,-34.81 30.91,-66.76 54.92,-95.94 26.43,-32.4 55.96,-56.87 88.47,-73.42 32.52,-16.66 67.1,-24.93 103.75,-24.93 15.17,0 30.22,1.38 45.04,4.02 14.82,2.76 29.41,6.89 43.78,12.52 8.04,2.64 19.19,7.47 33.32,14.36 14.13,6.78 24.24,10.23 30.33,10.23 7.12,0 13.33,-3.33 18.5,-9.88 5.17,-6.66 9.31,-16.66 12.41,-29.87l38.72 0 -22.87 190.96 -47.45 0zm139.95 316.43l0 -50.56 372.84 -400.99 -126.62 0c-44.24,0 -76.98,7.93 -98.35,23.78 -21.26,15.74 -41.13,46.19 -59.52,91.34l-41.48 0 45.5 -159.94 376.4 0 0 49.75 -373.07 401.8 128.34 0c27.12,0 49.06,-1.61 65.61,-4.94 16.66,-3.22 30.1,-8.5 40.44,-15.97 10.34,-7.12 20.68,-19.07 31.02,-35.73 10.34,-16.55 23.21,-42.51 38.72,-77.79l42.74 0 -51.47 179.24 -391.11 0zm501.18 0l0 -50.56 372.84 -400.99 -126.62 0c-44.23,0 -76.98,7.93 -98.35,23.78 -21.26,15.74 -41.13,46.19 -59.52,91.34l-41.48 0 45.5 -159.94 376.4 0 0 49.75 -373.07 401.8 128.34 0c27.12,0 49.06,-1.61 65.61,-4.94 16.66,-3.22 30.1,-8.5 40.44,-15.97 10.34,-7.12 20.68,-19.07 31.02,-35.73 10.34,-16.55 23.21,-42.51 38.72,-77.79l42.74 0 -51.47 179.24 -391.11 0zm563.46 0l10.11 -44.81 13.1 0c19.76,0 34.13,-2.99 43.32,-8.96 9.31,-5.86 15.97,-16.54 20.22,-31.83l28.95 -111.11 -70.32 -193.6c-9.42,-24.47 -19.19,-40.79 -29.3,-48.95 -10.11,-8.16 -24.47,-12.29 -43.09,-12.29l-7.7 0 11.72 -44.81 199.92 0 -11.72 44.81 -6.78 0c-15.28,0 -26.43,2.07 -33.43,6.2 -7.12,4.14 -10.69,10.8 -10.69,19.76 0,4.48 0.46,8.96 1.26,13.56 0.69,4.6 1.95,9.08 3.45,13.33l56.53 155.92 106.05 -129.03c7.93,-9.42 13.9,-18.27 18.04,-26.66 4.14,-8.5 6.2,-15.86 6.2,-22.06 0,-11.03 -4.48,-18.96 -13.56,-23.78 -9.19,-4.83 -23.67,-7.24 -43.66,-7.24l11.14 -44.81 195.67 0 -10.8 44.81 -1.95 0c-13.1,0 -24.93,2.99 -35.73,8.96 -10.8,5.86 -21.72,15.74 -32.63,29.41l-182.23 222.9 -21.94 82.84c-2.18,8.04 -3.79,14.71 -4.83,19.99 -1.03,5.28 -1.49,9.42 -1.49,12.29 0,11.49 3.91,19.53 11.72,24.13 7.93,4.6 21.95,6.89 42.05,6.89 1.84,0 4.71,-0.11 8.5,-0.34 3.79,-0.23 6.89,-0.34 9.42,-0.34l-11.84 44.81 -223.71 0z"/>
  </g>
  <g id="_2368419073504">
   <g>
    <path class="fil2" d="M3118.12 897.4c15.07,39.37 49.2,84.72 96.63,85.8 44.32,1 72.22,-39.89 85.48,-76.77l9.69 3.39c-15.98,44.47 -42.3,93.64 -96.61,92.41 -49.2,-1.12 -96.8,-55.12 -113.03,-97.51l17.85 -7.32z"/>
    <path class="fil3" d="M775.26 445.62c59.2,-691.48 -668.47,531.75 -655.48,488.33l-19.71 3.68c2.32,-3.95 818.59,-1392.92 697.85,-489.26l-22.66 -2.74z"/>
    <path class="fil4" d="M2563.8 751.95c12.96,80.69 82.01,414.87 180.45,443.51 70.49,20.51 113.14,-130.67 126.92,-173.87l18.85 6.71c-30.67,96.11 -62.68,158.87 -94.82,189.39 -21.01,19.94 -42.3,26.68 -63.58,20.49 -20.46,-5.95 -40.29,-24.1 -59.18,-54.15 -45.7,-72.69 -99.19,-214.39 -133.46,-427.83l24.82 -4.26z"/>
    <path class="fil5" d="M1778.35 526.32c-7.94,163.2 -76.29,895.47 61.67,997.7 88.1,63.61 168.29,-213.99 183.95,-259.48l19.51 6.87c-59.64,173.32 -114.77,280.39 -161.7,324.85 -28.81,27.29 -55.13,32.22 -78.22,15.56 -21.45,-15.49 -39.15,-50.62 -52.38,-104.69 -39.33,-160.63 -49.08,-494.81 3.89,-982.85l23.29 2.05z"/>
    <path class="fil6" d="M797.92 448.37c-26.9,196.13 -229.97,1250.09 -143.92,1299.1 34.15,19.01 72.9,12.85 235.02,-278.37l22.31 12.52c-166.79,299.61 -263.91,401.24 -305.51,378.09 -88.01,-48.99 137.13,-1204.07 169.45,-1414.08l22.66 2.74z"/>
    <polygon class="fil7" points="1041.05,761.97 3208.16,945.02 1041.05,1128.07 60.49,945.02 "/>
    <path class="fil8" d="M2023.97 1264.53c44.51,-137.22 238.88,-706.48 389.88,-759.17 105.76,-36.91 140.26,184.92 149.95,246.58l-24.82 4.26c-10.45,-48.38 -35.03,-232.64 -116.75,-210.35 -144.23,50.33 -335.8,593.1 -378.71,725.42l-19.55 -6.74z"/>
    <path class="fil9" d="M889.01 1469.1c130.82,-241.23 713.54,-1426.19 845.62,-1412.39 56.27,5.88 77.8,143.58 43.72,469.61l-23.29 -2.05c29.77,-315.86 -3.19,-360.63 -44.63,-367 -127.79,-13.36 -678.54,1102.01 -799.11,1324.34l-22.31 -12.52z"/>
    <path class="fil10" d="M2871.17 1021.59c58.01,-181.77 110.04,-241.04 147.91,-242.58 39.39,-1.59 75.39,57.3 99.04,118.39l-17.85 7.32c-21.9,-56.58 -50.43,-104.66 -81.26,-103.41 -32.35,1.31 -73.12,51.95 -128.99,227l-18.85 -6.71z"/>
    <path class="fil11" d="M3300.22 906.42c14.75,-40.56 46,-86.44 92.62,-92.48 41.6,-5.38 76.22,25.95 98.05,57.97l-4.51 3.19c-19.25,-28.48 -57.05,-59.13 -90.44,-50.62 -46.16,5.98 -71.94,46.55 -86.03,85.32l-9.69 -3.39z"/>
    <path class="fil12" d="M3490.89 871.92c13.24,19.45 26.95,41.85 42.21,59.28 21.72,24.82 36.25,20 75.89,-14.68 97.88,-85.64 130.26,-113.54 249.72,-3.76l0 0c-117.5,-107.97 -151.5,-76.23 -246.78,7.13 -42.29,37 -57.98,41.93 -82.19,14.26 -15.68,-17.92 -28.45,-39.83 -43.36,-59.03l4.51 -3.19z"/>
   </g>
   <path class="fil13" d="M1205.37 1514.54c-2.3,7.81 -3.91,14.36 -4.94,19.53 -0.92,5.17 -1.49,9.42 -1.49,12.75 0,11.03 3.91,18.84 11.61,23.44 7.7,4.6 21.14,6.89 40.1,6.89l10.46 0 -11.03 44.81 -197.85 0 11.15 -44.81 6.09 0c15.51,0 27,-2.99 34.7,-8.96 7.58,-5.86 13.33,-16.54 17.12,-31.83l79.05 -303.33c1.38,-5.4 2.41,-10.92 3.22,-16.66 0.8,-5.75 1.15,-11.38 1.15,-17 0,-10.57 -4.14,-18.04 -12.41,-22.41 -8.27,-4.37 -22.52,-6.55 -42.63,-6.55l-6.43 0 11.03 -44.81 199.23 0 -11.84 44.81 -3.33 0c-16.43,0 -28.72,2.99 -36.88,8.96 -8.27,5.86 -14.36,16.43 -18.38,31.48l-77.67 303.68zm602.41 -209c-5.4,-46.42 -20.34,-82.15 -44.81,-107.2 -24.36,-25.05 -56.41,-37.57 -95.94,-37.57 -24.82,0 -47.91,5.52 -69.17,16.55 -21.14,10.92 -40.21,27.23 -56.99,48.83 -19.76,25.28 -35.16,55.84 -46.07,91.34 -11.03,35.62 -16.55,73.31 -16.55,113.06 0,50.44 11.38,88.93 34.01,115.36 22.64,26.31 55.61,39.52 98.93,39.52 41.82,0 77.44,-12.52 106.86,-37.69 29.53,-25.16 44.35,-55.04 44.35,-89.74 0,-13.44 -4.37,-22.75 -12.98,-27.92 -8.62,-5.17 -26.89,-8.5 -54.69,-10.11l11.15 -44.12 217.04 0 -12.18 44.12c-23.32,0.46 -41.02,6.89 -53.31,19.19 -12.18,12.41 -22.64,35.62 -31.14,69.74l-30.91 126.16 -40.79 0 0 -0.69c-1.72,-21.03 -6.32,-31.48 -13.79,-31.48 -0.69,0 -17,5.29 -49.18,16.09 -32.06,10.69 -64.8,16.09 -98.24,16.09 -61.47,0 -110.76,-20.11 -147.87,-60.32 -37,-40.1 -55.5,-93.3 -55.5,-159.59 0,-37 6.32,-72.84 18.84,-107.66 12.52,-34.81 30.91,-66.76 54.92,-95.94 26.43,-32.4 55.96,-56.87 88.47,-73.42 32.52,-16.66 67.1,-24.93 103.75,-24.93 15.17,0 30.22,1.38 45.04,4.02 14.82,2.76 29.41,6.89 43.78,12.52 8.04,2.64 19.19,7.47 33.32,14.36 14.13,6.78 24.24,10.23 30.33,10.23 7.12,0 13.33,-3.33 18.5,-9.88 5.17,-6.66 9.31,-16.66 12.41,-29.87l38.72 0 -22.87 190.96 -47.45 0zm139.95 316.43l0 -50.56 372.84 -400.99 -126.62 0c-44.24,0 -76.98,7.93 -98.35,23.78 -21.26,15.74 -41.13,46.19 -59.52,91.34l-41.48 0 45.5 -159.94 376.4 0 0 49.75 -373.07 401.8 128.34 0c27.12,0 49.06,-1.61 65.61,-4.94 16.66,-3.22 30.1,-8.5 40.44,-15.97 10.34,-7.12 20.68,-19.07 31.02,-35.73 10.34,-16.55 23.21,-42.51 38.72,-77.79l42.74 0 -51.47 179.24 -391.11 0zm501.18 0l0 -50.56 372.84 -400.99 -126.62 0c-44.23,0 -76.98,7.93 -98.35,23.78 -21.26,15.74 -41.13,46.19 -59.52,91.34l-41.48 0 45.5 -159.94 376.4 0 0 49.75 -373.07 401.8 128.34 0c27.12,0 49.06,-1.61 65.61,-4.94 16.66,-3.22 30.1,-8.5 40.44,-15.97 10.34,-7.12 20.68,-19.07 31.02,-35.73 10.34,-16.55 23.21,-42.51 38.72,-77.79l42.74 0 -51.47 179.24 -391.11 0zm563.46 0l10.11 -44.81 13.1 0c19.76,0 34.13,-2.99 43.32,-8.96 9.31,-5.86 15.97,-16.54 20.22,-31.83l28.95 -111.11 -70.32 -193.6c-9.42,-24.47 -19.19,-40.79 -29.3,-48.95 -10.11,-8.16 -24.47,-12.29 -43.09,-12.29l-7.7 0 11.72 -44.81 199.92 0 -11.72 44.81 -6.78 0c-15.28,0 -26.43,2.07 -33.43,6.2 -7.12,4.14 -10.69,10.8 -10.69,19.76 0,4.48 0.46,8.96 1.26,13.56 0.69,4.6 1.95,9.08 3.45,13.33l56.53 155.92 106.05 -129.03c7.93,-9.42 13.9,-18.27 18.04,-26.66 4.14,-8.5 6.2,-15.86 6.2,-22.06 0,-11.03 -4.48,-18.96 -13.56,-23.78 -9.19,-4.83 -23.67,-7.24 -43.66,-7.24l11.14 -44.81 195.67 0 -10.8 44.81 -1.95 0c-13.1,0 -24.93,2.99 -35.73,8.96 -10.8,5.86 -21.72,15.74 -32.63,29.41l-182.23 222.9 -21.94 82.84c-2.18,8.04 -3.79,14.71 -4.83,19.99 -1.03,5.28 -1.49,9.42 -1.49,12.29 0,11.49 3.91,19.53 11.72,24.13 7.93,4.6 21.95,6.89 42.05,6.89 1.84,0 4.71,-0.11 8.5,-0.34 3.79,-0.23 6.89,-0.34 9.42,-0.34l-11.84 44.81 -223.71 0z"/>
  </g>
 </g>
</svg>
