<?xml version="1.0" encoding="UTF-8"?>
<!DOCTYPE svg PUBLIC "-//W3C//DTD SVG 1.1//EN" "http://www.w3.org/Graphics/SVG/1.1/DTD/svg11.dtd">
<!-- Creator: CorelDRAW 2018 (64 Bit) -->
<svg xmlns="http://www.w3.org/2000/svg" xml:space="preserve" width="83.7703mm" height="83.3422mm" version="1.1" style="shape-rendering:geometricPrecision; text-rendering:geometricPrecision; image-rendering:optimizeQuality; fill-rule:evenodd; clip-rule:evenodd"
viewBox="0 0 6201.7 6170"
 xmlns:xlink="http://www.w3.org/1999/xlink">
 <defs>
  <style type="text/css">
   <![CDATA[
    .fil2 {fill:#28282A}
    .fil1 {fill:#28282A;fill-rule:nonzero}
    .fil0 {fill:#EDCF18;fill-rule:nonzero}
   ]]>
  </style>
 </defs>
 <g id="Camada_x0020_1">
  <metadata id="CorelCorpID_0Corel-Layer"/>
  <g id="_1586477167440">
   <path class="fil0" d="M6169.8 5115.7c0,582.2 -472,1054.3 -1054.3,1054.3 -69.9,0 -755.5,-0.1 -4061.2,-0.1 -582.4,0 -1054.3,-471.9 -1054.3,-1054.3l0 -4061.3c0,-582.2 472,-1054.3 1054.3,-1054.3l4061.3 0c582.2,0 1054.3,472.2 1054.3,1054.3l0 4061.3 -0.1 0.1zm-2984.5 -1555.4c21.7,-66.9 66.2,-199.5 124.3,-352.7l-544.6 46c0.5,326 29.2,634.1 133.4,711.4 137.4,99.2 262.4,-333.7 286.8,-404.6zm-475.8 -302.1l-967.8 81.7c-130.8,250.3 -238,460.5 -291.3,558.8 -260.1,467.2 -411.5,625.7 -476.4,589.5 -79.6,-44.3 5,-668.4 100,-1248.9l-950.3 -177.4 61.7 -11.5c3.6,-6.2 1276.4,-2172 1088.2,-762.9 -12.9,94.1 -51.8,314.9 -95.6,577.6l474.7 -88.6 326.1 27.5c307.6,-570.8 640.6,-1139.2 755.4,-1127.3 87.7,9.2 121.3,223.9 68.2,732.3 -4,82.3 -17.9,257.5 -27.5,462.2l649 54.8c114.5,-261.6 250.6,-508.3 369.4,-549.7 164.9,-57.5 218.7,288.3 233.8,384.5 6.6,41.2 22.6,124.8 46.5,220.1l490.4 41.4c67.1,-160.5 126.8,-217.5 173,-219.3 61.4,-2.5 117.6,89.3 154.4,184.6 8.3,21.8 20.4,44.8 35.9,65.4l104.5 8.8 -91 7.7c26.6,29.4 60.8,50.9 101.2,51.8 69.1,1.6 112.6,-62.2 133.3,-119.7 23,-63.3 71.7,-134.8 144.4,-144.2 64.9,-8.4 118.8,40.5 152.9,90.4 20.6,30.3 42,65.2 65.8,92.4 33.9,38.7 56.5,31.2 118.3,-22.9 152.6,-133.5 203.1,-177 389.4,-5.9l0 0c-183.2,-168.4 -236.2,-118.9 -384.8,11.1 -65.9,57.7 -90.4,65.4 -128.2,22.2 -24.4,-27.9 -44.4,-62.1 -67.6,-92 -30,-44.4 -88.9,-92.2 -141,-78.9 -72,9.3 -112.2,72.6 -134.2,133 -24.9,69.3 -66,146 -150.6,144.1 -49.3,-1.1 -97.5,-36.2 -132.4,-78.7l-341.2 28.8c-9.8,27.5 -20,57.6 -30.5,90.5 -47.8,149.9 -97.7,247.7 -147.9,295.3 -32.8,31.1 -66,41.6 -99.1,31.9 -31.9,-9.3 -62.8,-37.6 -92.3,-84.4 -39.8,-63.4 -83.5,-160.3 -123.5,-291.7l-724.7 61.2c-62.3,158.4 -110.2,297.9 -132.5,366.5l-30.5 -10.5 30.4 10.7c-93,270.3 -179,437.2 -252.1,506.5 -44.9,42.6 -86,50.2 -122,24.3 -33.4,-24.1 -61,-78.9 -81.7,-163.2 -34.7,-141.8 -54.7,-370.5 -50.4,-680.3zm2154.1 -259c-34.2,-88.2 -78.6,-163.2 -126.7,-161.2 -38.1,1.5 -83.8,47.1 -141.5,187.2l295.3 24.9c-11.6,-17.1 -20.8,-34.6 -27.1,-50.9zm-4678.2 51.3l33.1 -6.2c-2.2,2.5 -3.1,2.9 -2.4,0.4l-30.7 5.7zm33.1 -6.2l917.3 -171.3c46.8,-269.8 87.6,-493.5 102.4,-589.8 89,-1039.2 -961.8,694.9 -1019.7,761zm3769.9 -276.7c-16.3,-75.4 -54.6,-362.8 -182,-328 -108.2,37.8 -233.6,253.4 -342,490l564.6 47.7c-14.8,-64.2 -28.5,-134 -40.6,-209.7l-0 0zm518 413.8c8.8,-27.5 17.5,-53.2 26.1,-77.2l-414 35c48.6,150.8 113.6,291.1 190,313.4 109.9,32 176.4,-203.8 197.9,-271.1zm-1740.3 -775.5c46.4,-492.5 -5,-562.3 -69.6,-572.3 -105.2,-11 -394.1,468.3 -671.1,974.4l700.2 59.1c9.2,-142.2 22.5,-296.1 40.5,-461.3l0 0zm-1350.4 1473.3c53.2,-98.1 154.3,-296.3 278.4,-535.3l-41.3 3.5 -536.3 -100.1c-78.3,507.2 -141,1023.9 -67.2,1065.9 53.2,29.6 113.7,20 366.5,-434.1z"/>
   <g>
    <path class="fil1" d="M5046.9 2987.8c23.5,61.4 76.7,132.1 150.7,133.8 69.1,1.6 112.6,-62.2 133.3,-119.7l15.1 5.3c-24.9,69.3 -66,146 -150.6,144.1 -76.7,-1.7 -151,-85.9 -176.2,-152l27.8 -11.4z"/>
    <path class="fil1" d="M1393.7 2283.4c92.3,-1078.2 -1042.3,829.2 -1022.1,761.4l-30.7 5.7c3.6,-6.2 1276.4,-2172 1088.2,-762.9l-35.3 -4.3z"/>
    <path class="fil1" d="M4182.5 2761c20.2,125.8 127.9,646.9 281.4,691.6 109.9,32 176.4,-203.8 197.9,-271.1l29.4 10.5c-47.8,149.9 -97.7,247.7 -147.9,295.3 -32.8,31.1 -66,41.6 -99.1,31.9 -31.9,-9.3 -62.8,-37.6 -92.3,-84.4 -71.3,-113.4 -154.7,-334.3 -208.1,-667.1l38.7 -6.6z"/>
    <path class="fil1" d="M2957.8 2409.2c-12.4,254.5 -119,1396.3 96.2,1555.7 137.4,99.2 262.4,-333.7 286.8,-404.6l30.4 10.7c-93,270.3 -179,437.2 -252.1,506.5 -44.9,42.6 -86,50.2 -122,24.3 -33.4,-24.1 -61,-78.9 -81.7,-163.2 -61.3,-250.5 -76.5,-771.5 6.1,-1532.6l36.3 3.2z"/>
    <path class="fil1" d="M1429 2287.6c-41.9,305.8 -358.6,1949.3 -224.4,2025.7 53.2,29.6 113.7,20 366.5,-434.1l34.8 19.5c-260.1,467.2 -411.5,625.7 -476.4,589.5 -137.2,-76.4 213.8,-1877.5 264.2,-2205l35.3 4.3z"/>
    <polygon class="fil2" points="1808.1,2776.6 5187.3,3062.1 1808.1,3347.5 279.1,3062.1 "/>
    <path class="fil1" d="M3340.8 3560.3c69.4,-214 372.5,-1101.6 607.9,-1183.8 164.9,-57.5 218.7,288.3 233.8,384.5l-38.7 6.6c-16.3,-75.4 -54.6,-362.8 -182.1,-328 -224.9,78.5 -523.6,924.8 -590.5,1131.1l-30.5 -10.5z"/>
    <path class="fil1" d="M1571 3879.3c204,-376.1 1112.6,-2223.9 1318.6,-2202.3 87.7,9.2 121.3,223.9 68.2,732.3l-36.3 -3.2c46.4,-492.5 -5,-562.3 -69.6,-572.3 -199.3,-20.8 -1058.1,1718.4 -1246.1,2065l-34.8 -19.5z"/>
    <path class="fil1" d="M4661.8 3181.5c90.5,-283.4 171.6,-375.9 230.6,-378.3 61.4,-2.5 117.6,89.3 154.4,184.6l-27.8 11.4c-34.2,-88.2 -78.6,-163.2 -126.7,-161.2 -50.4,2 -114,81 -201.1,354l-29.4 -10.5z"/>
    <path class="fil1" d="M5330.8 3001.9c23,-63.3 71.7,-134.8 144.4,-144.2 64.9,-8.4 118.8,40.5 152.9,90.4l-7 5c-30,-44.4 -88.9,-92.2 -141,-78.9 -72,9.3 -112.2,72.6 -134.2,133l-15.1 -5.3z"/>
    <path class="fil1" d="M5628.1 2948.1c20.6,30.3 42,65.2 65.8,92.4 33.9,38.7 56.5,31.2 118.3,-22.9 152.6,-133.5 203.1,-177 389.4,-5.9l0 0c-183.2,-168.4 -236.2,-118.9 -384.8,11.1 -65.9,57.7 -90.4,65.4 -128.2,22.2 -24.4,-27.9 -44.4,-62.1 -67.6,-92l7 -5z"/>
   </g>
  </g>
 </g>
</svg>
