<svg xmlns="http://www.w3.org/2000/svg" width="316.6" height="315" fill-rule="evenodd" clip-rule="evenodd" image-rendering="optimizeQuality" shape-rendering="geometricPrecision" text-rendering="geometricPrecision" viewBox="0 0 2949 2934"><defs><style>.fil1{fill:#edcf18;fill-rule:nonzero}</style></defs><g id="Camada_x0020_1"><g id="_2139180768224"><path fill="none" fill-rule="nonzero" d="M2934 2433c0 277-224 501-501 501H501A501 501 0 010 2433V501C0 224 224 0 501 0h1932c277 0 501 224 501 501v1932zm-1419-740c10-32 31-95 59-168l-259 22c0 155 14 302 63 339 66 47 125-159 137-193zm-227-143l-460 38-138 266c-124 222-196 298-227 281-38-22 3-318 48-594l-452-85 29-5c2-3 607-1033 518-363-6 45-25 150-46 275l226-42 155 13c146-272 305-542 359-536 42 4 58 106 33 348-2 39-9 122-13 220l308 26c55-125 119-242 176-262 78-27 104 137 111 183 3 20 11 59 22 105l233 20c32-77 61-104 83-105 29-1 56 43 73 88 4 10 10 21 17 31l50 4-43 4c12 14 28 24 48 25 32 0 53-30 63-57 11-30 34-64 69-69 30-4 56 19 72 43 10 15 20 31 32 44 16 19 27 15 56-11 73-63 97-84 185-2-87-81-112-57-183 5-31 27-43 31-61 10-11-13-21-29-32-43-14-21-42-44-67-38-34 5-53 35-64 63-12 33-31 70-72 69-23-1-46-17-62-37l-163 13-14 43c-23 72-47 118-71 141-15 15-31 20-47 15-15-4-30-18-44-40-19-30-39-77-58-139l-345 29c-30 75-52 142-63 174l-14-5 14 6c-44 128-85 207-120 240-21 21-41 24-58 12-16-12-29-38-39-78-16-67-26-176-24-323zm1025-124c-16-42-37-77-60-76-19 0-40 22-68 89l141 12c-6-9-10-17-13-25zM88 1451l16-3h-1l-15 3zm16-3l436-82c22-128 42-234 49-280 42-494-458 330-485 362zm1793-132c-8-36-26-172-87-156-51 18-111 121-163 233l269 23c-7-31-13-64-19-100zm246 197l12-37-196 17c23 72 54 138 90 149 52 15 84-97 94-129zm-828-369c23-234-2-267-33-272-50-5-187 223-319 464l333 28c5-68 11-141 19-220zm-642 701c26-47 74-141 133-255l-20 2-255-48c-37 242-67 487-32 507 25 14 54 10 174-206z"/><path d="M2400 1421c11 29 37 63 72 64 33 0 53-30 63-57l7 2c-12 33-31 69-71 69-37-1-72-41-84-73l13-5zM663 1086c44-513-496 394-486 362l-15 3c2-3 607-1033 518-363l-17-2zM1989 1313c10 60 61 308 134 329 52 15 84-97 94-129l14 5c-23 71-46 118-70 140-16 15-32 20-47 16-16-5-30-18-44-41-34-53-74-159-99-317l18-3zM1407 1146c-6 121-57 664 45 740 66 47 125-159 137-193l14 5c-44 129-85 208-120 241-21 20-41 24-58 12-16-12-29-38-39-78-29-119-36-367 3-729l18 2z" class="fil1"/><path d="M680 1088c-20 145-171 927-107 963 25 14 54 10 174-206l17 9c-124 222-196 298-227 280-65-36 102-892 126-1048l17 2z" class="fil1"/><path fill="#edcf18" d="M860 1321l1607 135-1607 136-727-136z"/><path d="M1589 1693c33-102 177-524 289-563 78-27 104 137 111 183l-18 3c-8-36-26-172-87-156-107 38-249 440-281 538l-14-5zM747 1845c97-179 529-1058 627-1048 42 5 58 107 33 349l-18-2c22-234-2-267-33-272-95-10-503 817-592 982l-17-9zM2217 1513c43-135 82-179 110-180 29-1 56 43 73 88l-13 5c-16-42-37-77-60-76-24 1-55 38-96 168l-14-5zM2535 1428c11-31 34-65 69-69 31-4 56 19 73 43l-4 2c-14-21-42-43-67-37-34 4-53 34-64 63l-7-2z" class="fil1"/><path d="M2677 1402c9 14 20 31 31 44 16 18 27 15 56-11 73-63 97-84 185-3-87-80-112-56-183 6-31 27-43 31-61 10-11-13-21-29-32-44l3-2z" class="fil1"/></g></g></svg>