<svg xmlns="http://www.w3.org/2000/svg" width="315" height="315" fill-rule="evenodd" clip-rule="evenodd" image-rendering="optimizeQuality" shape-rendering="geometricPrecision" text-rendering="geometricPrecision" viewBox="0 0 3845 3845"><defs><style>.str0{stroke:#373435;stroke-width:9.2;stroke-miterlimit:22.9256}.fil1{fill:#b31279}</style></defs><g id="Camada_x0020_1"><g id="_2139173409280"><path fill="none" d="M3845 3188c0 363-295 657-657 657H657A657 657 0 010 3188V657C0 294 294 0 657 0h2531c362 0 657 294 657 657v2531zM1310 616a767 767 0 00-766 767v1079c0 422 343 766 766 766h1224c423 0 767-344 767-766V1383c0-423-344-767-767-767H1310zm1224 2831H1310a987 987 0 01-986-985V1383c0-544 443-986 986-986h1224c544 0 986 442 986 986v1079c0 543-442 985-986 985zm434-2375a182 182 0 11-364 0 182 182 0 01364 0zm-1046 192a659 659 0 102 1318 659 659 0 00-2-1318zm0 1536a878 878 0 010-1755 878 878 0 010 1755z"/><path d="M325 1383v1079c0 543 442 985 985 985h1225c543 0 985-442 985-985V1383c0-544-442-986-985-986H1310a987 987 0 00-986 986zm219 1079V1383c0-423 343-767 766-767h1224c423 0 767 344 767 767v1079c0 423-344 766-767 766H1310a767 767 0 01-766-766z" class="fil1 str0"/><path d="M1045 1922a878 878 0 001755 0 878 878 0 00-1755 0zm877 659a659 659 0 112-1318 659 659 0 01-2 1318zM2604 1072a182 182 0 10364 0 182 182 0 00-364 0z" class="fil1 str0"/></g></g></svg>