<?xml version="1.0" encoding="UTF-8"?>
<!DOCTYPE svg PUBLIC "-//W3C//DTD SVG 1.1//EN" "http://www.w3.org/Graphics/SVG/1.1/DTD/svg11.dtd">
<!-- Creator: CorelDRAW 2018 (64 Bit) -->
<svg xmlns="http://www.w3.org/2000/svg" xml:space="preserve" width="83.3396mm" height="83.3396mm" version="1.1" style="shape-rendering:geometricPrecision; text-rendering:geometricPrecision; image-rendering:optimizeQuality; fill-rule:evenodd; clip-rule:evenodd"
viewBox="0 0 12112.9 12112.9"
 xmlns:xlink="http://www.w3.org/1999/xlink">
 <defs>
  <style type="text/css">
   <![CDATA[
    .fil0 {fill:#EDCF18}
   ]]>
  </style>
 </defs>
 <g id="Camada_x0020_1">
  <metadata id="CorelCorpID_0Corel-Layer"/>
  <path class="fil0" d="M12112.9 10043c0,1143.4 -926.5,2069.9 -2069.9,2069.9l-7973.1 0c-1143.4,0 -2069.9,-926.8 -2069.9,-2069.9l0 -7973.1c0,-1143.1 926.5,-2069.9 2069.9,-2069.9l7973.1 0c1143.4,0 2069.9,926.8 2069.9,2069.9l0 7973.1zm-7985.3 -8101.1c-1331.7,0 -2415.1,1083.3 -2415.1,2414.8l0 3399.5c0,1331.4 1083.3,2415.1 2415.1,2415.1l3857.5 0c1331.4,0 2414.8,-1083.3 2414.8,-2415.1l0 -3399.5c0,-1331.4 -1083.3,-2414.8 -2414.8,-2414.8l-3857.5 0zm3857.5 8919.1l-3857.5 0c-1712.2,0 -3105.1,-1392.9 -3105.1,-3104.8l0 -3399.5c0,-1712.2 1392.9,-3104.8 3105.1,-3104.8l3857.5 0c1711.9,0 3104.8,1392.9 3104.8,3104.8l0 3399.5c0,1712.2 -1392.9,3104.8 -3104.8,3104.8zm1366.1 -7483.6c0,316.9 -256.5,573.4 -573.4,573.4 -316.9,0 -573.7,-256.5 -573.7,-573.4 0,-316.9 256.8,-573.4 573.7,-573.4 316.6,0 573.4,256.5 573.4,573.4zm-3294.9 605.2c-1143.7,0 -2074,930.3 -2074,2073.7 0,1143.7 930.3,2073.9 2074,2073.9 1143.4,0 2073.9,-930.3 2073.9,-2073.9 0,-1143.7 -930.3,-2073.7 -2073.9,-2073.7zm0 4837.7c-1524.1,0 -2763.7,-1239.9 -2763.7,-2764 0,-1524.1 1239.6,-2764 2763.7,-2764 1524.1,0 2763.7,1239.9 2763.7,2764 0,1524.1 -1239.9,2764 -2763.7,2764z"/>
 </g>
</svg>
