<?xml version="1.0" encoding="UTF-8"?>
<!DOCTYPE svg PUBLIC "-//W3C//DTD SVG 1.1//EN" "http://www.w3.org/Graphics/SVG/1.1/DTD/svg11.dtd">
<!-- Creator: CorelDRAW 2019 (64 Bit) -->
<svg xmlns="http://www.w3.org/2000/svg" xml:space="preserve" width="83.3412mm" height="83.3417mm" version="1.1" style="shape-rendering:geometricPrecision; text-rendering:geometricPrecision; image-rendering:optimizeQuality; fill-rule:evenodd; clip-rule:evenodd"
viewBox="0 0 415.49 415.5"
 xmlns:xlink="http://www.w3.org/1999/xlink">
 <defs>
  <style type="text/css">
   <![CDATA[
    .fil0 {fill:#202022}
   ]]>
  </style>
 </defs>
 <g id="Camada_x0020_1">
  <metadata id="CorelCorpID_0Corel-Layer"/>
  <path class="fil0" d="M415.49 344.49c0,39.22 -31.78,71 -71,71l-273.49 0c-39.22,0 -71,-31.79 -71,-71l0 -273.49c0,-39.21 31.78,-71 71,-71l273.49 0c39.22,0 71,31.79 71,71l0 273.49zm-273.91 -277.88c-45.68,0 -82.84,37.16 -82.84,82.83l0 116.61c0,45.67 37.16,82.84 82.84,82.84l132.32 0c45.67,0 82.83,-37.16 82.83,-82.84l0 -116.61c0,-45.67 -37.16,-82.83 -82.83,-82.83l-132.32 0zm132.32 305.94l-132.32 0c-58.73,0 -106.51,-47.78 -106.51,-106.5l0 -116.61c0,-58.73 47.78,-106.5 106.51,-106.5l132.32 0c58.72,0 106.5,47.78 106.5,106.5l0 116.61c0,58.73 -47.78,106.5 -106.5,106.5zm46.86 -256.7c0,10.87 -8.8,19.67 -19.67,19.67 -10.87,0 -19.68,-8.8 -19.68,-19.67 0,-10.87 8.81,-19.67 19.68,-19.67 10.86,0 19.67,8.8 19.67,19.67zm-113.02 20.76c-39.23,0 -71.14,31.91 -71.14,71.13 0,39.23 31.91,71.14 71.14,71.14 39.22,0 71.14,-31.91 71.14,-71.14 0,-39.23 -31.91,-71.13 -71.14,-71.13zm0 165.94c-52.28,0 -94.8,-42.53 -94.8,-94.81 0,-52.28 42.52,-94.81 94.8,-94.81 52.28,0 94.8,42.53 94.8,94.81 0,52.28 -42.53,94.81 -94.8,94.81z"/>
 </g>
</svg>
