<?xml version="1.0" encoding="UTF-8"?>
<!DOCTYPE svg PUBLIC "-//W3C//DTD SVG 1.1//EN" "http://www.w3.org/Graphics/SVG/1.1/DTD/svg11.dtd">
<!-- Creator: CorelDRAW 2018 (64 Bit) -->
<svg xmlns="http://www.w3.org/2000/svg" xml:space="preserve" width="83.3396mm" height="83.3396mm" version="1.1" style="shape-rendering:geometricPrecision; text-rendering:geometricPrecision; image-rendering:optimizeQuality; fill-rule:evenodd; clip-rule:evenodd"
viewBox="0 0 3813.6 3813.6"
 xmlns:xlink="http://www.w3.org/1999/xlink">
 <defs>
  <style type="text/css">
   <![CDATA[
    .str0 {stroke:#373435;stroke-width:9.2;stroke-miterlimit:22.9256}
    .fil0 {fill:none}
    .fil1 {fill:#EDCF18}
   ]]>
  </style>
 </defs>
 <g id="Camada_x0020_1">
  <metadata id="CorelCorpID_0Corel-Layer"/>
  <g id="_2139179320224">
   <path class="fil0" d="M3813.6 3162c0,360 -291.7,651.7 -651.7,651.7l-2510.3 0c-360,0 -651.7,-291.8 -651.7,-651.7l0 -2510.3c0,-359.9 291.7,-651.7 651.7,-651.7l2510.3 0c360,0 651.7,291.8 651.7,651.7l0 2510.3zm-2514.1 -2550.6c-419.3,0 -760.4,341.1 -760.4,760.3l0 1070.3c0,419.2 341.1,760.4 760.4,760.4l1214.5 0c419.2,0 760.3,-341.1 760.3,-760.4l0 -1070.3c0,-419.2 -341.1,-760.3 -760.3,-760.3l-1214.5 0zm1214.5 2808.1l-1214.5 0c-539.1,0 -977.6,-438.6 -977.6,-977.5l0 -1070.3c0,-539.1 438.6,-977.5 977.6,-977.5l1214.5 0c539,0 977.5,438.6 977.5,977.5l0 1070.3c0,539.1 -438.6,977.5 -977.5,977.5zm430.1 -2356.2c0,99.8 -80.8,180.5 -180.5,180.5 -99.8,0 -180.6,-80.8 -180.6,-180.5 0,-99.8 80.9,-180.5 180.6,-180.5 99.7,0 180.5,80.8 180.5,180.5zm-1037.4 190.6c-360.1,0 -653,292.9 -653,652.9 0,360.1 292.9,653 653,653 360,0 653,-292.9 653,-653 0,-360.1 -292.9,-652.9 -653,-652.9zm0 1523.1c-479.9,0 -870.1,-390.4 -870.1,-870.2 0,-479.9 390.3,-870.2 870.1,-870.2 479.9,0 870.1,390.4 870.1,870.2 0,479.9 -390.4,870.2 -870.1,870.2z"/>
   <path class="fil1 str0" d="M321.9 1371.7l0 1070.3c0,539 438.6,977.5 977.6,977.5l1214.5 0c539,0 977.5,-438.5 977.5,-977.5l0 -1070.3c0,-539 -438.6,-977.5 -977.5,-977.5l-1214.5 0c-539.1,0 -977.6,438.5 -977.6,977.5zm217.3 1070.3l0 -1070.3c0,-419.2 341.1,-760.3 760.4,-760.3l1214.5 0c419.2,0 760.3,341.1 760.3,760.3l0 1070.3c0,419.3 -341.1,760.4 -760.3,760.4l-1214.5 0c-419.3,0 -760.4,-341.2 -760.4,-760.4z"/>
   <path class="fil1 str0" d="M1036.6 1906.8c0,479.9 390.3,870.2 870.1,870.2 479.8,0 870.1,-390.4 870.1,-870.2 0,-479.9 -390.3,-870.2 -870.1,-870.2 -479.9,0 -870.1,390.4 -870.1,870.2zm870.1 653c-360.1,0 -653,-292.9 -653,-653 0,-360 292.9,-652.9 653,-652.9 360.1,0 653,292.8 653,652.9 0,360.1 -293,653 -653,653z"/>
   <path class="fil1 str0" d="M2583 1063.3c0,99.8 80.9,180.5 180.6,180.5 99.8,0 180.5,-80.8 180.5,-180.5 0,-99.8 -80.9,-180.5 -180.5,-180.5 -99.8,0 -180.6,80.8 -180.6,180.5z"/>
  </g>
 </g>
</svg>
