<svg xmlns="http://www.w3.org/2000/svg" width="315" height="315" fill-rule="evenodd" clip-rule="evenodd" image-rendering="optimizeQuality" shape-rendering="geometricPrecision" text-rendering="geometricPrecision" viewBox="0 0 3814 3814"><defs><style>.str0{stroke:#373435;stroke-width:9.2;stroke-miterlimit:22.9256}.fil1{fill:#fff}</style></defs><g id="Camada_x0020_1"><path fill="none" d="M3814 3162c0 360-292 652-652 652H652A652 652 0 010 3162V652C0 292 292 0 652 0h2510c360 0 652 292 652 652v2510zM1300 611a761 761 0 00-761 761v1070c0 419 341 760 761 760h1214c419 0 760-341 760-760V1372c0-419-341-761-760-761H1300zm1214 2809H1300a979 979 0 01-978-978V1372c0-539 439-978 978-978h1214c539 0 978 439 978 978v1070c0 539-439 978-978 978zm430-2357a180 180 0 11-361 0 180 180 0 01361 0zm-1037 191a654 654 0 101 1307 654 654 0 00-1-1307zm0 1523a871 871 0 010-1740 871 871 0 010 1740z"/><path d="M322 1372v1070c0 539 439 978 978 978h1214c539 0 978-439 978-978V1372c0-539-439-978-978-978H1300a979 979 0 00-978 978zm217 1070V1372c0-419 341-761 761-761h1214c419 0 760 342 760 761v1070c0 419-341 760-760 760H1300a761 761 0 01-761-760z" class="fil1 str0"/><path d="M1037 1907a871 871 0 001740 0 871 871 0 00-1740 0zm870 653a654 654 0 111-1308 654 654 0 01-1 1308zM2583 1063a181 181 0 10361 0 181 181 0 00-361 0z" class="fil1 str0"/></g></svg>