<?xml version="1.0" encoding="UTF-8"?>
<!DOCTYPE svg PUBLIC "-//W3C//DTD SVG 1.1//EN" "http://www.w3.org/Graphics/SVG/1.1/DTD/svg11.dtd">
<!-- Creator: CorelDRAW 2018 (64 Bit) -->
<svg xmlns="http://www.w3.org/2000/svg" xml:space="preserve" width="83.3396mm" height="83.3396mm" version="1.1" style="shape-rendering:geometricPrecision; text-rendering:geometricPrecision; image-rendering:optimizeQuality; fill-rule:evenodd; clip-rule:evenodd"
viewBox="0 0 3844.6 3844.6"
 xmlns:xlink="http://www.w3.org/1999/xlink">
 <defs>
  <style type="text/css">
   <![CDATA[
    .str0 {stroke:#373435;stroke-width:9.2;stroke-miterlimit:22.9256}
    .fil0 {fill:none}
    .fil1 {fill:#B31279}
   ]]>
  </style>
 </defs>
 <g id="Camada_x0020_1">
  <metadata id="CorelCorpID_0Corel-Layer"/>
  <g id="_2139173409280">
   <path class="fil0" d="M3844.6 3187.7c0,362.9 -294.1,657 -657,657l-2530.7 0c-362.9,0 -657,-294.2 -657,-657l0 -2530.7c0,-362.8 294.1,-657 657,-657l2530.7 0c362.9,0 657,294.2 657,657l0 2530.7zm-2534.6 -2571.3c-422.7,0 -766.5,343.9 -766.5,766.5l0 1079c0,422.6 343.9,766.5 766.5,766.5l1224.4 0c422.6,0 766.5,-343.9 766.5,-766.5l0 -1079c0,-422.6 -343.9,-766.5 -766.5,-766.5l-1224.4 0zm1224.4 2830.9l-1224.4 0c-543.4,0 -985.6,-442.1 -985.6,-985.5l0 -1079c0,-543.4 442.1,-985.5 985.6,-985.5l1224.4 0c543.4,0 985.5,442.1 985.5,985.5l0 1079c0,543.4 -442.1,985.5 -985.5,985.5zm433.6 -2375.3c0,100.6 -81.4,182 -182,182 -100.6,0 -182.1,-81.4 -182.1,-182 0,-100.6 81.5,-182 182.1,-182 100.5,0 182,81.4 182,182zm-1045.8 192.1c-363,0 -658.3,295.3 -658.3,658.2 0,363 295.3,658.3 658.3,658.3 362.9,0 658.3,-295.3 658.3,-658.3 0,-363 -295.3,-658.2 -658.3,-658.2zm0 1535.5c-483.8,0 -877.2,-393.5 -877.2,-877.3 0,-483.8 393.4,-877.3 877.2,-877.3 483.8,0 877.2,393.5 877.2,877.3 0,483.8 -393.5,877.3 -877.2,877.3z"/>
   <path class="fil1 str0" d="M324.5 1382.8l0 1079c0,543.4 442.1,985.5 985.6,985.5l1224.4 0c543.4,0 985.5,-442 985.5,-985.5l0 -1079c0,-543.4 -442.1,-985.5 -985.5,-985.5l-1224.4 0c-543.4,0 -985.6,442 -985.6,985.5zm219 1079l0 -1079c0,-422.6 343.9,-766.5 766.5,-766.5l1224.4 0c422.6,0 766.5,343.9 766.5,766.5l0 1079c0,422.7 -343.9,766.5 -766.5,766.5l-1224.4 0c-422.7,0 -766.5,-343.9 -766.5,-766.5z"/>
   <path class="fil1 str0" d="M1045.1 1922.3c0,483.8 393.4,877.3 877.2,877.3 483.7,0 877.2,-393.5 877.2,-877.3 0,-483.8 -393.4,-877.3 -877.2,-877.3 -483.8,0 -877.2,393.5 -877.2,877.3zm877.2 658.3c-363,0 -658.3,-295.3 -658.3,-658.3 0,-362.9 295.3,-658.2 658.3,-658.2 363,0 658.3,295.2 658.3,658.2 0,363 -295.4,658.3 -658.3,658.3z"/>
   <path class="fil1 str0" d="M2604 1072c0,100.6 81.5,182 182.1,182 100.6,0 182,-81.4 182,-182 0,-100.6 -81.5,-182 -182,-182 -100.6,0 -182.1,81.4 -182.1,182z"/>
  </g>
 </g>
</svg>
