<?xml version="1.0" encoding="UTF-8"?>
<!DOCTYPE svg PUBLIC "-//W3C//DTD SVG 1.1//EN" "http://www.w3.org/Graphics/SVG/1.1/DTD/svg11.dtd">
<!-- Creator: CorelDRAW 2018 (64 Bit) -->
<svg xmlns="http://www.w3.org/2000/svg" xml:space="preserve" width="83.3396mm" height="83.3396mm" version="1.1" style="shape-rendering:geometricPrecision; text-rendering:geometricPrecision; image-rendering:optimizeQuality; fill-rule:evenodd; clip-rule:evenodd"
viewBox="0 0 9756 9756"
 xmlns:xlink="http://www.w3.org/1999/xlink">
 <defs>
  <style type="text/css">
   <![CDATA[
    .fil0 {fill:url(#id0)}
   ]]>
  </style>
  <linearGradient id="id0" gradientUnits="userSpaceOnUse" x1="-1188.5" y1="-803.3" x2="11406.9" y2="11111.3">
   <stop offset="0" style="stop-opacity:1; stop-color:#EDCF18"/>
   <stop offset="0.278431" style="stop-opacity:1; stop-color:#B31279"/>
   <stop offset="0.678431" style="stop-opacity:1; stop-color:#B31279"/>
   <stop offset="1" style="stop-opacity:1; stop-color:#540080"/>
  </linearGradient>
 </defs>
 <g id="Camada_x0020_1">
  <metadata id="CorelCorpID_0Corel-Layer"/>
  <path class="fil0" d="M9756 8088.9c0,920.9 -746.2,1667.1 -1667.1,1667.1l-6421.8 0c-920.9,0 -1667.1,-746.5 -1667.1,-1667.1l0 -6421.8c0,-920.7 746.2,-1667.1 1667.1,-1667.1l6421.8 0c920.9,0 1667.1,746.5 1667.1,1667.1l0 6421.8zm-6431.6 -6524.8c-1072.6,0 -1945.2,872.5 -1945.2,1944.9l0 2738.1c0,1072.4 872.5,1945.2 1945.2,1945.2l3107 0c1072.4,0 1944.9,-872.5 1944.9,-1945.2l0 -2738.1c0,-1072.4 -872.5,-1944.9 -1944.9,-1944.9l-3107 0zm3107 7183.7l-3107 0c-1379,0 -2500.9,-1121.9 -2500.9,-2500.7l0 -2738.1c0,-1379 1121.9,-2500.7 2500.9,-2500.7l3107 0c1378.8,0 2500.7,1121.9 2500.7,2500.7l0 2738.1c0,1379 -1121.9,2500.7 -2500.7,2500.7zm1100.3 -6027.5c0,255.2 -206.6,461.9 -461.9,461.9 -255.2,0 -462.1,-206.6 -462.1,-461.9 0,-255.2 206.9,-461.9 462.1,-461.9 255,0 461.9,206.6 461.9,461.9zm-2653.8 487.5c-921.2,0 -1670.4,749.3 -1670.4,1670.2 0,921.1 749.3,1670.4 1670.4,1670.4 920.9,0 1670.4,-749.3 1670.4,-1670.4 0,-921.2 -749.3,-1670.2 -1670.4,-1670.2zm0 3896.4c-1227.6,0 -2226,-998.6 -2226,-2226.2 0,-1227.6 998.4,-2226.2 2226,-2226.2 1227.6,0 2226,998.6 2226,2226.2 0,1227.6 -998.6,2226.2 -2226,2226.2z"/>
 </g>
</svg>
