<?xml version="1.0" encoding="UTF-8"?>
<!DOCTYPE svg PUBLIC "-//W3C//DTD SVG 1.1//EN" "http://www.w3.org/Graphics/SVG/1.1/DTD/svg11.dtd">
<!-- Creator: CorelDRAW 2018 (64 Bit) -->
<svg xmlns="http://www.w3.org/2000/svg" xml:space="preserve" width="83.3416mm" height="83.3378mm" version="1.1" style="shape-rendering:geometricPrecision; text-rendering:geometricPrecision; image-rendering:optimizeQuality; fill-rule:evenodd; clip-rule:evenodd"
viewBox="0 0 7354.4 7354"
 xmlns:xlink="http://www.w3.org/1999/xlink">
 <defs>
  <style type="text/css">
   <![CDATA[
    .fil0 {fill:#EDCF18;fill-rule:nonzero}
   ]]>
  </style>
 </defs>
 <g id="Camada_x0020_1">
  <metadata id="CorelCorpID_0Corel-Layer"/>
  <path class="fil0" d="M7354.4 6097.6c0,694 -562.8,1256.5 -1256.8,1256.5 -897.7,0 447.8,0 -4840.8,0 -694,0 -1256.8,-562.5 -1256.8,-1256.5l0 -4840.8c0,-694 562.5,-1256.8 1256.8,-1256.8l4840.8 0c694,0 1256.8,562.8 1256.8,1256.8l0 4840.8zm-5861.2 -1380.9c88.3,-6.4 410.4,-91.7 518.6,-115 730.1,-91.4 1043.4,-45.2 1670.9,348 306.5,192.2 253.2,58 77.9,-165.2 -432,-550 -687.6,-719.3 -1190.4,-1071.7 -234.4,-165.2 -177.4,-254.9 -105.2,-502.1 14.5,-52.6 134.2,-440.4 123.4,-461.6 -36.8,-72.2 -234,81.9 -271.1,140.6 -118.7,186.8 -257.3,534.8 -368.9,752.3 -65.4,127.8 -519,996.8 -455.2,1074.7zm5340.8 -131.5c-70.1,37.8 -681.2,-93.4 -814,-103.2 -102.8,-7.4 -180.1,-4.1 -282.2,8.1 -448.5,64.7 -1250.7,363.9 -1385.3,846.8 -59.7,213.8 157.8,-80.3 187.2,-115 638.7,-736.5 1470.3,-675.8 2320.1,-389.5 100.5,33.7 157.5,49.9 263.7,25.6 72.8,-16.5 59.7,-49.6 27,-123.8 -104.9,-225.6 -237.4,-403.7 -343,-646.1 -354.8,-831.9 -592.8,-1778.8 -1739.4,-1453.4 -302.5,86 -733.8,310.9 -844.1,631.3 -46.2,133.9 26.3,108.2 102.5,20.9 214.5,-245.2 238.8,-323.1 555.1,-470.4 571.2,-266.1 1144.9,-134.2 1432.5,455.9 102.2,209.4 555.4,1140.5 520,1312.4l-0 0.4zm-3719.8 -607.3c469.1,383.8 555.4,719.3 920.6,1109.8 316.3,338.2 -541.6,-974.6 -561.8,-1001.9 -168.9,-218.5 -418.8,-448.2 -561.8,-653.9 -171,-246.2 -56,-458.6 -5.1,-722.7 22.6,-117 121.7,-746.6 241.4,-760.8 237.7,-28.3 757,773.9 886.5,980.6 234,373.6 156.5,47.5 51.6,-138.9 -93.8,-166.9 -891.3,-1318.5 -1107.8,-938.1 -94.8,166.3 -167.3,641 -250.6,867.3 -73.9,200.6 -278.2,639 -128.5,831.6 104.9,135.2 371.6,312.3 515.9,426.6l-0.7 0.3z"/>
 </g>
</svg>
