<?xml version="1.0" encoding="UTF-8"?>
<!DOCTYPE svg PUBLIC "-//W3C//DTD SVG 1.1//EN" "http://www.w3.org/Graphics/SVG/1.1/DTD/svg11.dtd">
<!-- Creator: CorelDRAW 2018 (64 Bit) -->
<svg xmlns="http://www.w3.org/2000/svg" xml:space="preserve" width="83.3416mm" height="83.3378mm" version="1.1" style="shape-rendering:geometricPrecision; text-rendering:geometricPrecision; image-rendering:optimizeQuality; fill-rule:evenodd; clip-rule:evenodd"
viewBox="0 0 7228.3 7227.9"
 xmlns:xlink="http://www.w3.org/1999/xlink">
 <defs>
  <style type="text/css">
   <![CDATA[
    .fil0 {fill:url(#id0);fill-rule:nonzero}
   ]]>
  </style>
  <linearGradient id="id0" gradientUnits="userSpaceOnUse" x1="-869.2" y1="-1884.3" x2="7947.9" y2="8728.2">
   <stop offset="0" style="stop-opacity:1; stop-color:#EDCF18"/>
   <stop offset="0.388235" style="stop-opacity:1; stop-color:#B31279"/>
   <stop offset="0.619608" style="stop-opacity:1; stop-color:#B31279"/>
   <stop offset="1" style="stop-opacity:1; stop-color:#540080"/>
  </linearGradient>
 </defs>
 <g id="Camada_x0020_1">
  <metadata id="CorelCorpID_0Corel-Layer"/>
  <path class="fil0" d="M7228.3 5993c0,682.1 -553.2,1234.9 -1235.3,1234.9 -882.3,0 440.1,0 -4757.7,0 -682.1,0 -1235.3,-552.8 -1235.3,-1234.9l0 -4757.7c0,-682.1 552.8,-1235.3 1235.3,-1235.3l4757.7 0c682.1,0 1235.3,553.2 1235.3,1235.3l0 4757.7zm-5760.7 -1357.2c86.8,-6.3 403.4,-90.1 509.8,-113 717.6,-89.8 1025.5,-44.4 1642.3,342 301.3,188.9 248.9,57 76.6,-162.4 -424.6,-540.6 -675.8,-706.9 -1170,-1053.3 -230.3,-162.4 -174.3,-250.6 -103.4,-493.5 14.2,-51.7 131.9,-432.9 121.3,-453.7 -36.1,-70.9 -230,80.5 -266.5,138.2 -116.7,183.6 -252.9,525.7 -362.6,739.4 -64.3,125.6 -510.1,979.7 -447.4,1056.3zm5249.3 -129.3c-68.9,37.1 -669.5,-91.8 -800.1,-101.4 -101.1,-7.3 -177,-4 -277.4,8 -440.8,63.6 -1229.3,357.6 -1361.5,832.2 -58.7,210.1 155.1,-78.9 183.9,-113 627.7,-723.9 1445.1,-664.2 2280.3,-382.8 98.8,33.1 154.8,49.1 259.2,25.2 71.6,-16.2 58.7,-48.7 26.5,-121.6 -103.1,-221.7 -233.3,-396.7 -337.1,-635 -348.7,-817.6 -582.7,-1748.3 -1709.5,-1428.5 -297.3,84.5 -721.2,305.6 -829.6,620.4 -45.4,131.6 25.9,106.4 100.8,20.5 210.8,-241 234.7,-317.5 545.5,-462.4 561.5,-261.5 1125.2,-131.9 1407.9,448.1 100.4,205.8 545.9,1120.9 511.1,1289.9l-0 0.4zm-3656.1 -596.9c461,377.2 545.9,706.9 904.8,1090.7 310.9,332.4 -532.3,-957.9 -552.2,-984.7 -166,-214.8 -411.6,-440.5 -552.2,-642.6 -168,-241.9 -55,-450.8 -5,-710.3 22.2,-115 119.6,-733.8 237.3,-747.7 233.7,-27.8 744.1,760.6 871.3,963.8 230,367.2 153.8,46.7 50.7,-136.5 -92.1,-164.1 -876,-1295.9 -1088.8,-922 -93.1,163.4 -164.4,630.1 -246.3,852.4 -72.6,197.2 -273.4,628.1 -126.3,817.3 103.1,132.9 365.2,306.9 507.1,419.3l-0.7 0.3z"/>
 </g>
</svg>
