<svg xmlns="http://www.w3.org/2000/svg" width="315" height="315" fill-rule="evenodd" clip-rule="evenodd" image-rendering="optimizeQuality" shape-rendering="geometricPrecision" text-rendering="geometricPrecision" viewBox="0 0 3168 3168"><defs><style>.str0{stroke:#373435;stroke-width:7.6;stroke-miterlimit:22.9256}.fil1{fill:#fff}</style></defs><g id="Camada_x0020_1"><g id="_2140912916448"><path fill="none" fill-rule="nonzero" d="M3168 2627c0 299-242 541-541 541H542A541 541 0 010 2627V541C0 242 242 0 542 0h2085c299 0 541 243 541 541v2086zM643 2032c38-3 177-39 224-49 314-40 449-20 720 149 132 83 109 25 33-71-186-237-296-310-513-461-101-72-76-110-45-217 6-22 58-189 53-199-16-31-101 36-117 61-51 80-110 230-158 324-29 55-224 429-197 463zm2301-57c-30 17-293-40-350-44-45-3-78-2-122 3-193 28-539 157-597 365-26 92 68-35 81-49 275-318 633-292 999-168 44 14 68 21 114 11 31-7 26-22 11-54-45-97-102-173-147-278-153-358-256-766-750-626-130 37-316 134-363 272-20 58 11 47 44 9 92-106 103-139 239-203 246-114 493-57 617 197 44 90 240 491 224 565zm-1602-261c202 165 239 310 396 478 137 145-233-420-242-432-72-94-180-193-242-282-73-106-24-197-2-311 10-50 53-321 104-328 103-12 326 334 382 423 101 161 67 20 22-60-40-72-384-568-477-404-41 71-72 276-108 373-32 87-120 276-55 359 45 58 160 134 222 184z"/><path d="M557 1569c-28 55-223 429-196 463 38-3 177-39 224-49 314-40 449-20 719 149 133 83 110 25 34-71-186-237-296-310-513-461-101-72-76-110-45-217 6-22 58-189 53-199-16-31-101 36-117 61-51 80-110 230-158 324z" class="fil1 str0"/><path d="M838 1530c45 58 160 134 222 184 202 165 239 310 396 478 137 145-233-420-242-432-73-94-180-193-242-282-73-106-24-197-2-311 10-50 52-321 104-328 102-12 326 334 382 423 101 161 67 20 22-60-40-72-384-568-477-404-41 71-72 276-108 373-32 87-120 276-55 359z" class="fil1 str0"/><path d="M1821 1213c246-114 493-58 617 197 44 90 239 491 224 565-30 17-293-40-351-44-44-3-77-2-121 3-193 28-539 157-597 365-26 92 68-35 81-49 275-318 633-292 999-168 43 14 68 21 114 11 31-7 25-22 11-54-45-97-102-173-147-278-153-358-256-766-750-626-130 37-316 134-363 272-20 58 11 47 44 9 92-106 103-139 239-203z" class="fil1 str0"/></g></g></svg>