<?xml version="1.0" encoding="UTF-8"?>
<!DOCTYPE svg PUBLIC "-//W3C//DTD SVG 1.1//EN" "http://www.w3.org/Graphics/SVG/1.1/DTD/svg11.dtd">
<!-- Creator: CorelDRAW 2019 (64 Bit) -->
<svg xmlns="http://www.w3.org/2000/svg" xml:space="preserve" width="83.3422mm" height="83.3417mm" version="1.1" style="shape-rendering:geometricPrecision; text-rendering:geometricPrecision; image-rendering:optimizeQuality; fill-rule:evenodd; clip-rule:evenodd"
viewBox="0 0 218.09 218.09"
 xmlns:xlink="http://www.w3.org/1999/xlink">
 <defs>
  <style type="text/css">
   <![CDATA[
    .fil0 {fill:#202022;fill-rule:nonzero}
   ]]>
  </style>
 </defs>
 <g id="Camada_x0020_1">
  <metadata id="CorelCorpID_0Corel-Layer"/>
  <path class="fil0" d="M218.09 180.82c0,20.58 -16.69,37.26 -37.27,37.26 -26.62,0 13.28,0 -143.55,0 -20.58,0 -37.27,-16.68 -37.27,-37.26l0 -143.55c0,-20.58 16.68,-37.27 37.27,-37.27l143.55 0c20.58,0 37.27,16.69 37.27,37.27l0 143.55zm-173.81 -40.95c2.62,-0.19 12.17,-2.72 15.38,-3.41 21.65,-2.71 30.94,-1.34 49.55,10.32 9.09,5.7 7.51,1.72 2.31,-4.9 -12.81,-16.31 -20.39,-21.33 -35.3,-31.78 -6.95,-4.9 -5.26,-7.56 -3.12,-14.89 0.43,-1.56 3.98,-13.06 3.66,-13.69 -1.09,-2.14 -6.94,2.43 -8.04,4.17 -3.52,5.54 -7.63,15.86 -10.94,22.31 -1.94,3.79 -15.39,29.56 -13.5,31.87zm158.38 -3.9c-2.08,1.12 -20.2,-2.77 -24.14,-3.06 -3.05,-0.22 -5.34,-0.12 -8.37,0.24 -13.3,1.92 -37.09,10.79 -41.08,25.11 -1.77,6.34 4.68,-2.38 5.55,-3.41 18.94,-21.84 43.6,-20.04 68.8,-11.55 2.98,1 4.67,1.48 7.82,0.76 2.16,-0.49 1.77,-1.47 0.8,-3.67 -3.11,-6.69 -7.04,-11.97 -10.17,-19.16 -10.52,-24.67 -17.58,-52.75 -51.58,-43.1 -8.97,2.55 -21.76,9.22 -25.03,18.72 -1.37,3.97 0.78,3.21 3.04,0.62 6.36,-7.27 7.08,-9.58 16.46,-13.95 16.94,-7.89 33.95,-3.98 42.48,13.52 3.03,6.21 16.47,33.82 15.42,38.92zm-110.31 -18.01c13.91,11.38 16.47,21.33 27.3,32.91 9.38,10.03 -16.06,-28.9 -16.66,-29.71 -5.01,-6.48 -12.42,-13.29 -16.66,-19.39 -5.07,-7.3 -1.66,-13.6 -0.15,-21.43 0.67,-3.47 3.61,-22.14 7.16,-22.56 7.05,-0.84 22.45,22.95 26.29,29.08 6.94,11.08 4.64,1.41 1.53,-4.12 -2.78,-4.95 -26.43,-39.1 -32.85,-27.82 -2.81,4.93 -4.96,19.01 -7.43,25.72 -2.19,5.95 -8.25,18.95 -3.81,24.66 3.11,4.01 11.02,9.26 15.3,12.65z"/>
 </g>
</svg>
