<?xml version="1.0" encoding="UTF-8"?>
<!DOCTYPE svg PUBLIC "-//W3C//DTD SVG 1.1//EN" "http://www.w3.org/Graphics/SVG/1.1/DTD/svg11.dtd">
<!-- Creator: CorelDRAW 2018 (64 Bit) -->
<svg xmlns="http://www.w3.org/2000/svg" xml:space="preserve" width="83.3416mm" height="83.3378mm" version="1.1" style="shape-rendering:geometricPrecision; text-rendering:geometricPrecision; image-rendering:optimizeQuality; fill-rule:evenodd; clip-rule:evenodd"
viewBox="0 0 3189.7 3189.5"
 xmlns:xlink="http://www.w3.org/1999/xlink">
 <defs>
  <style type="text/css">
   <![CDATA[
    .str0 {stroke:#373435;stroke-width:7.7;stroke-miterlimit:22.9256}
    .fil0 {fill:none;fill-rule:nonzero}
    .fil1 {fill:#B31279}
   ]]>
  </style>
 </defs>
 <g id="Camada_x0020_1">
  <metadata id="CorelCorpID_0Corel-Layer"/>
  <g id="_2139173436704">
   <path class="fil0" d="M3189.7 2644.6c0,301 -244.1,545 -545.1,545 -389.3,0 194.2,0 -2099.5,0 -301,0 -545.1,-244 -545.1,-545l0 -2099.5c0,-301 244,-545.1 545.1,-545.1l2099.5 0c301,0 545.1,244.1 545.1,545.1l0 2099.5zm-2542.1 -598.9c38.3,-2.8 178,-39.8 224.9,-49.9 316.6,-39.6 452.5,-19.6 724.7,150.9 132.9,83.4 109.8,25.2 33.8,-71.7 -187.4,-238.5 -298.2,-312 -516.3,-464.8 -101.6,-71.7 -76.9,-110.6 -45.6,-217.8 6.3,-22.8 58.2,-191 53.5,-200.2 -15.9,-31.3 -101.5,35.5 -117.6,61 -51.5,81 -111.6,232 -160,326.3 -28.4,55.4 -225.1,432.3 -197.4,466.1zm2316.4 -57c-30.4,16.4 -295.4,-40.5 -353.1,-44.8 -44.6,-3.2 -78.1,-1.8 -122.4,3.5 -194.5,28.1 -542.5,157.8 -600.8,367.2 -25.9,92.7 68.4,-34.8 81.2,-49.9 277,-319.4 637.7,-293.1 1006.2,-168.9 43.6,14.6 68.3,21.6 114.4,11.1 31.6,-7.2 25.9,-21.5 11.7,-53.7 -45.5,-97.8 -103,-175.1 -148.7,-280.2 -153.9,-360.8 -257.1,-771.5 -754.4,-630.4 -131.2,37.3 -318.3,134.8 -366.1,273.8 -20,58.1 11.4,46.9 44.5,9.1 93,-106.3 103.6,-140.1 240.7,-204 247.8,-115.4 496.5,-58.2 621.3,197.7 44.3,90.8 240.9,494.6 225.5,569.2l-0 0.2zm-1613.3 -263.4c203.4,166.4 240.9,312 399.3,481.3 137.2,146.7 -234.9,-422.7 -243.7,-434.5 -73.3,-94.8 -181.6,-194.4 -243.7,-283.6 -74.2,-106.8 -24.3,-198.9 -2.2,-313.4 9.8,-50.7 52.8,-323.8 104.7,-330 103.1,-12.3 328.3,335.7 384.5,425.3 101.5,162.1 67.9,20.6 22.4,-60.3 -40.7,-72.4 -386.6,-571.9 -480.4,-406.9 -41.1,72.1 -72.5,278 -108.7,376.2 -32,87 -120.7,277.2 -55.7,360.7 45.5,58.6 161.2,135.4 223.8,185l-0.3 0.1z"/>
   <g>
    <path class="fil1 str0" d="M561.1 1579.6c-28.4,55.4 -225.1,432.3 -197.4,466.1 38.3,-2.8 178,-39.8 224.9,-49.9 316.6,-39.6 452.5,-19.6 724.7,150.9 132.9,83.4 109.8,25.2 33.8,-71.7 -187.4,-238.5 -298.2,-312 -516.3,-464.8 -101.6,-71.7 -76.9,-110.6 -45.6,-217.8 6.3,-22.8 58.2,-191 53.5,-200.2 -15.9,-31.3 -101.5,35.5 -117.6,61 -51.5,81 -111.6,232 -160,326.3z"/>
    <path class="fil1 str0" d="M843.3 1540.1c45.5,58.6 161.2,135.4 223.8,185l-0.3 0.1c203.4,166.4 240.9,312 399.3,481.3 137.2,146.7 -234.9,-422.7 -243.7,-434.5 -73.3,-94.8 -181.6,-194.4 -243.7,-283.6 -74.2,-106.8 -24.3,-198.9 -2.2,-313.4 9.8,-50.7 52.8,-323.8 104.7,-330 103.1,-12.3 328.3,335.7 384.5,425.3 101.5,162.1 67.9,20.6 22.4,-60.3 -40.7,-72.4 -386.6,-571.9 -480.4,-406.9 -41.1,72.1 -72.5,278 -108.7,376.2 -32,87 -120.7,277.2 -55.7,360.7z"/>
    <path class="fil1 str0" d="M1833.3 1221.5c247.8,-115.4 496.5,-58.2 621.3,197.7 44.3,90.8 240.9,494.6 225.5,569.2l-0 0.2c-30.4,16.4 -295.4,-40.5 -353.1,-44.8 -44.6,-3.2 -78.1,-1.8 -122.4,3.5 -194.5,28.1 -542.5,157.8 -600.8,367.2 -25.9,92.7 68.4,-34.8 81.2,-49.9 277,-319.4 637.7,-293.1 1006.2,-168.9 43.6,14.6 68.3,21.6 114.4,11.1 31.6,-7.2 25.9,-21.5 11.7,-53.7 -45.5,-97.8 -103,-175.1 -148.7,-280.2 -153.9,-360.8 -257.1,-771.5 -754.4,-630.4 -131.2,37.3 -318.3,134.8 -366.1,273.8 -20,58.1 11.4,46.9 44.5,9.1 93,-106.3 103.6,-140.1 240.7,-204z"/>
   </g>
  </g>
 </g>
</svg>
