<svg xmlns="http://www.w3.org/2000/svg" width="315" height="315" fill-rule="evenodd" clip-rule="evenodd" image-rendering="optimizeQuality" shape-rendering="geometricPrecision" text-rendering="geometricPrecision" viewBox="0 0 3190 3190"><defs><style>.str0{stroke:#373435;stroke-width:7.7;stroke-miterlimit:22.9256}.fil1{fill:#b31279}</style></defs><g id="Camada_x0020_1"><g id="_2139173436704"><path fill="none" fill-rule="nonzero" d="M3190 2645c0 301-244 545-545 545H545A545 545 0 010 2645V545C0 244 244 0 545 0h2100c301 0 545 244 545 545v2100zM648 2046c38-3 178-40 224-50 317-40 453-20 725 151 133 83 110 25 34-72-187-238-298-312-516-465-102-71-77-110-46-218 6-22 58-191 54-200-16-31-102 36-118 61-52 81-112 232-160 327-28 55-225 432-197 466zm2316-57c-30 16-295-41-353-45-45-3-78-2-122 3-195 28-543 158-601 368-26 92 68-35 81-50 277-320 638-293 1006-169 44 14 68 21 115 11 31-7 25-22 11-54-45-98-103-175-148-280-154-361-258-772-755-630-131 37-318 134-366 273-20 58 11 47 45 9 93-106 103-140 240-204 248-115 497-58 622 198 44 91 240 495 225 569v1zm-1613-264c203 167 241 312 399 482 137 146-235-423-244-435-73-95-181-194-243-284-75-106-25-198-3-313 10-51 53-324 105-330 103-12 328 336 385 425 101 162 67 21 22-60-41-72-387-572-480-407-42 72-73 278-109 376-32 87-121 278-56 361 46 59 161 135 224 185z"/><path d="M561 1580c-28 55-225 432-197 466 38-3 178-40 225-50 316-40 452-20 724 151 133 83 110 25 34-72-187-238-298-312-516-465-102-71-77-110-46-218 7-22 58-191 54-200-16-31-102 36-118 61-51 81-111 232-160 327z" class="fil1 str0"/><path d="M843 1540c46 59 161 135 224 185 203 167 241 312 399 481 137 147-235-422-244-434-73-95-181-194-243-284-75-106-25-198-3-313 10-51 53-324 105-330 103-12 328 336 385 425 101 162 68 21 22-60-41-72-387-572-480-407-41 72-73 278-109 376-32 87-121 277-56 361z" class="fil1 str0"/><path d="M1833 1222c248-116 497-59 622 197 44 91 240 495 225 569v1c-30 16-295-41-353-45-45-3-78-2-122 3-195 28-543 158-601 368-26 92 68-35 81-50 277-320 638-294 1006-169 44 14 68 21 115 11 31-7 25-22 11-54-45-98-103-175-148-280-154-361-258-772-755-631-131 38-318 135-366 274-20 58 11 47 45 9 93-106 103-140 240-204z" class="fil1 str0"/></g></g></svg>