<?xml version="1.0" encoding="UTF-8"?>
<!DOCTYPE svg PUBLIC "-//W3C//DTD SVG 1.1//EN" "http://www.w3.org/Graphics/SVG/1.1/DTD/svg11.dtd">
<!-- Creator: CorelDRAW 2018 (64 Bit) -->
<svg xmlns="http://www.w3.org/2000/svg" xml:space="preserve" width="83.3416mm" height="83.3378mm" version="1.1" style="shape-rendering:geometricPrecision; text-rendering:geometricPrecision; image-rendering:optimizeQuality; fill-rule:evenodd; clip-rule:evenodd"
viewBox="0 0 3168.3 3168.2"
 xmlns:xlink="http://www.w3.org/1999/xlink">
 <defs>
  <style type="text/css">
   <![CDATA[
    .str0 {stroke:#373435;stroke-width:7.6;stroke-miterlimit:22.9256}
    .fil0 {fill:none;fill-rule:nonzero}
    .fil1 {fill:white}
   ]]>
  </style>
 </defs>
 <g id="Camada_x0020_1">
  <metadata id="CorelCorpID_0Corel-Layer"/>
  <g id="_2140912916448">
   <path class="fil0" d="M3168.3 2626.9c0,299 -242.5,541.3 -541.4,541.3 -386.7,0 192.9,0 -2085.4,0 -299,0 -541.4,-242.3 -541.4,-541.3l0 -2085.4c0,-299 242.3,-541.4 541.4,-541.4l2085.4 0c299,0 541.4,242.5 541.4,541.4l0 2085.4zm-2525 -594.9c38.1,-2.8 176.8,-39.5 223.4,-49.5 314.5,-39.4 449.5,-19.5 719.8,149.9 132.1,82.8 109.1,25 33.6,-71.2 -186.1,-236.9 -296.2,-309.9 -512.8,-461.7 -101,-71.2 -76.4,-109.8 -45.3,-216.3 6.2,-22.7 57.8,-189.7 53.2,-198.9 -15.8,-31.1 -100.8,35.3 -116.8,60.6 -51.1,80.5 -110.8,230.4 -158.9,324.1 -28.2,55.1 -223.6,429.4 -196.1,463zm2300.9 -56.7c-30.2,16.3 -293.5,-40.2 -350.7,-44.5 -44.3,-3.2 -77.6,-1.7 -121.6,3.5 -193.2,27.9 -538.8,156.8 -596.8,364.8 -25.7,92.1 68,-34.6 80.6,-49.5 275.2,-317.3 633.4,-291.1 999.5,-167.8 43.3,14.5 67.8,21.5 113.6,11 31.4,-7.1 25.7,-21.4 11.6,-53.3 -45.2,-97.2 -102.3,-173.9 -147.7,-278.3 -152.8,-358.4 -255.4,-766.3 -749.3,-626.1 -130.3,37 -316.1,133.9 -363.6,272 -19.9,57.7 11.3,46.6 44.2,9 92.4,-105.6 102.9,-139.2 239.1,-202.7 246.1,-114.6 493.2,-57.8 617.1,196.4 44,90.2 239.3,491.3 224,565.4l-0 0.2zm-1602.5 -261.6c202.1,165.3 239.3,309.9 396.6,478.1 136.3,145.7 -233.3,-419.8 -242,-431.6 -72.8,-94.1 -180.4,-193.1 -242,-281.7 -73.7,-106 -24.1,-197.6 -2.2,-311.3 9.7,-50.4 52.4,-321.6 104,-327.7 102.4,-12.2 326.1,333.4 381.9,422.5 100.8,161 67.4,20.5 22.2,-59.9 -40.4,-71.9 -384,-568 -477.2,-404.2 -40.8,71.6 -72.1,276.2 -107.9,373.6 -31.8,86.4 -119.9,275.3 -55.4,358.3 45.2,58.3 160.1,134.5 222.3,183.8l-0.3 0.1z"/>
   <g>
    <path class="fil1 str0" d="M557.4 1569c-28.2,55.1 -223.6,429.4 -196.1,463 38.1,-2.8 176.8,-39.5 223.4,-49.5 314.5,-39.4 449.5,-19.5 719.8,149.9 132.1,82.8 109.1,25 33.6,-71.2 -186.1,-236.9 -296.2,-309.9 -512.8,-461.7 -101,-71.2 -76.4,-109.8 -45.3,-216.3 6.2,-22.7 57.8,-189.7 53.2,-198.9 -15.8,-31.1 -100.8,35.3 -116.8,60.6 -51.1,80.5 -110.8,230.4 -158.9,324.1z"/>
    <path class="fil1 str0" d="M837.6 1529.8c45.2,58.3 160.1,134.5 222.3,183.8l-0.3 0.1c202.1,165.3 239.3,309.9 396.6,478.1 136.3,145.7 -233.3,-419.8 -242,-431.6 -72.8,-94.1 -180.4,-193.1 -242,-281.7 -73.7,-106 -24.1,-197.6 -2.2,-311.3 9.7,-50.4 52.4,-321.6 104,-327.7 102.4,-12.2 326.1,333.4 381.9,422.5 100.8,161 67.4,20.5 22.2,-59.9 -40.4,-71.9 -384,-568 -477.2,-404.2 -40.8,71.6 -72.1,276.2 -107.9,373.6 -31.8,86.4 -119.9,275.3 -55.4,358.3z"/>
    <path class="fil1 str0" d="M1821 1213.3c246.1,-114.6 493.2,-57.8 617.1,196.4 44,90.2 239.3,491.3 224,565.4l-0 0.2c-30.2,16.3 -293.5,-40.2 -350.7,-44.5 -44.3,-3.2 -77.6,-1.7 -121.6,3.5 -193.2,27.9 -538.8,156.8 -596.8,364.8 -25.7,92.1 68,-34.6 80.6,-49.5 275.2,-317.3 633.4,-291.1 999.5,-167.8 43.3,14.5 67.8,21.5 113.6,11 31.4,-7.1 25.7,-21.4 11.6,-53.3 -45.2,-97.2 -102.3,-173.9 -147.7,-278.3 -152.8,-358.4 -255.4,-766.3 -749.3,-626.1 -130.3,37 -316.1,133.9 -363.6,272 -19.9,57.7 11.3,46.6 44.2,9 92.4,-105.6 102.9,-139.2 239.1,-202.7z"/>
   </g>
  </g>
 </g>
</svg>
