<svg xmlns="http://www.w3.org/2000/svg" width="315" height="315" fill-rule="evenodd" clip-rule="evenodd" image-rendering="optimizeQuality" shape-rendering="geometricPrecision" text-rendering="geometricPrecision" viewBox="0 0 218 218"><path fill="#202022" fill-rule="nonzero" d="M218 181c0 20-17 37-37 37H37c-20 0-37-17-37-37V37C0 17 17 0 37 0h144c20 0 37 17 37 37v144zM44 140l16-4c21-2 31-1 49 11 9 5 8 2 3-5-13-16-21-21-36-32-7-5-5-7-3-15l4-13c-1-3-7 2-8 4-4 5-8 16-11 22-2 4-16 30-14 32zm159-4c-2 1-21-3-24-3h-9c-13 2-37 11-41 25-2 7 5-2 6-3 19-22 43-20 68-12 3 1 5 2 8 1 2 0 2-1 1-4l-10-19c-11-24-18-53-52-43-9 3-21 9-25 19-1 4 1 3 3 0 7-7 7-9 17-13 17-8 34-4 42 13 3 6 17 34 16 39zM92 118c14 11 17 21 28 33 9 10-16-29-17-30l-17-19c-5-8-1-14 0-22 1-3 4-22 7-22 7-1 23 23 27 29 7 11 4 1 1-4S95 44 88 55l-7 26c-2 6-8 19-4 24 3 4 11 10 15 13z"/></svg>