<svg xmlns="http://www.w3.org/2000/svg" width="315" height="315" fill-rule="evenodd" clip-rule="evenodd" image-rendering="optimizeQuality" shape-rendering="geometricPrecision" text-rendering="geometricPrecision" viewBox="0 0 3465 3465"><path fill="none" fill-rule="nonzero" d="M3465 2873c0 327-265 593-592 593H592A592 592 0 010 2873V592C0 265 265 0 592 0h2281c327 0 592 265 592 592v2281zM1782 731c-57 30-84 46-91 53-133 49-237 161-171 310 107 240 313-14 504-11 308 6 623 445 289 687-230 166-334 154-446 446-52 135-82 328 76 406 19 9 38 14 56 15-8 36 2 27-39 61-44 38-99 68-116 126l3-1c-98 86 27 317 244 334h36c17-1 34-3 45-7 112-46 243-223 212-349-28-116-148-155-244-196l-20-9c79-55 145-155 171-224 73-186 21-205 214-326 108-68 373-264 410-386 81-100 79-301 47-417a854 854 0 00-1179-511v-1zm90 1453l6-7 4-10c-10 6-7 4-10 17zm-33 628c7-4 5-1 12-10l-8 2-5 8z"/><path fill="#edcf18" stroke="#373435" stroke-miterlimit="22.9" stroke-width="8.3" d="M1515 1083c309 6 624 445 289 687-230 166-333 154-446 446-52 135-82 328 77 406 19 9 37 14 56 15-8 36 2 26-40 61-44 37-99 68-115 126l3-1c-99 86 26 317 244 334 13 1 25 1 36-1 17 0 33-2 45-6 112-46 242-223 212-349-28-116-149-155-245-196l-20-9c79-56 145-156 172-224 73-186 20-205 213-326 108-68 374-264 410-386 82-100 80-301 47-418a854 854 0 00-1179-511h0c-57 30-84 46-91 53-133 49-238 161-171 310 107 240 312-14 503-11z"/></svg>