<?xml version="1.0" encoding="UTF-8"?>
<!DOCTYPE svg PUBLIC "-//W3C//DTD SVG 1.1//EN" "http://www.w3.org/Graphics/SVG/1.1/DTD/svg11.dtd">
<!-- Creator: CorelDRAW 2019 (64 Bit) -->
<svg xmlns="http://www.w3.org/2000/svg" xml:space="preserve" width="83.3422mm" height="83.3417mm" version="1.1" style="shape-rendering:geometricPrecision; text-rendering:geometricPrecision; image-rendering:optimizeQuality; fill-rule:evenodd; clip-rule:evenodd"
viewBox="0 0 216.93 216.93"
 xmlns:xlink="http://www.w3.org/1999/xlink">
 <defs>
  <style type="text/css">
   <![CDATA[
    .fil0 {fill:#202022;fill-rule:nonzero}
   ]]>
  </style>
 </defs>
 <g id="Camada_x0020_1">
  <metadata id="CorelCorpID_0Corel-Layer"/>
  <path class="fil0" d="M216.93 179.87c0,20.47 -16.6,37.07 -37.07,37.07 -26.48,0 13.21,0 -142.79,0 -20.48,0 -37.07,-16.59 -37.07,-37.07l0 -142.8c0,-20.47 16.6,-37.07 37.07,-37.07l142.79 0c20.47,0 37.07,16.6 37.07,37.07l0 142.8zm-105.35 -134.1c-3.59,1.85 -5.29,2.85 -5.73,3.3 -8.3,3.1 -14.85,10.11 -10.7,19.41 6.7,15.03 19.56,-0.91 31.53,-0.69 19.3,0.35 39.04,27.85 18.08,43 -14.39,10.4 -20.86,9.62 -27.9,27.91 -3.26,8.48 -5.13,20.53 4.8,25.44 1.16,0.57 2.33,0.86 3.5,0.92 -0.52,2.26 0.1,1.67 -2.49,3.85 -2.76,2.33 -6.18,4.26 -7.21,7.87l0.18 -0.05c-6.17,5.35 1.64,19.83 15.28,20.9 0.81,0.06 1.56,0.05 2.25,-0.04 1.07,-0.02 2.09,-0.13 2.81,-0.43 7.02,-2.84 15.17,-13.95 13.27,-21.82 -1.75,-7.24 -9.3,-9.68 -15.31,-12.25 -0.58,-0.25 -0.98,-0.44 -1.26,-0.59 4.96,-3.47 9.08,-9.73 10.75,-14.01 4.56,-11.66 1.28,-12.85 13.37,-20.44 6.75,-4.24 23.37,-16.52 25.66,-24.16l0 -0c5.09,-6.26 4.98,-18.8 2.94,-26.11 -2.74,-9.84 -8.94,-18.01 -16.46,-24.73 -16.15,-13.29 -38.43,-16.48 -57.37,-7.28zm5.6 90.92c0.16,-0.18 0.15,-0.13 0.35,-0.43 0.14,-0.22 0.18,-0.36 0.27,-0.58 -0.64,0.35 -0.42,0.21 -0.62,1.01zm-2.09 39.36c0.44,-0.27 0.32,-0.11 0.76,-0.65l-0.46 0.14 -0.3 0.51z"/>
 </g>
</svg>
