<svg xmlns="http://www.w3.org/2000/svg" width="315" height="315" fill-rule="evenodd" clip-rule="evenodd" image-rendering="optimizeQuality" shape-rendering="geometricPrecision" text-rendering="geometricPrecision" viewBox="0 0 217 217"><path fill="#202022" fill-rule="nonzero" d="M217 180c0 20-17 37-37 37H37c-20 0-37-17-37-37V37C0 17 17 0 37 0h143c20 0 37 17 37 37v143zM112 46l-6 3c-8 3-15 10-11 19 7 16 20 0 32 0 19 0 39 28 18 43-15 10-21 9-28 28-3 8-5 20 5 25l3 1-2 4c-3 2-7 4-8 8h1c-7 5 1 20 15 21h2l3-1c7-3 15-14 13-22-1-7-9-9-15-12h-1c5-4 9-10 10-15 5-11 2-12 14-20 7-4 23-16 25-24 6-6 5-19 3-26-2-10-9-18-16-25a53 53 0 00-57-7zm5 91l1-1-1 1zm-2 39l1-1-1 1z"/></svg>