<?xml version="1.0" encoding="UTF-8"?>
<!DOCTYPE svg PUBLIC "-//W3C//DTD SVG 1.1//EN" "http://www.w3.org/Graphics/SVG/1.1/DTD/svg11.dtd">
<!-- Creator: CorelDRAW 2018 (64 Bit) -->
<svg xmlns="http://www.w3.org/2000/svg" xml:space="preserve" width="83.3416mm" height="83.3454mm" version="1.1" style="shape-rendering:geometricPrecision; text-rendering:geometricPrecision; image-rendering:optimizeQuality; fill-rule:evenodd; clip-rule:evenodd"
viewBox="0 0 9110.6 9111"
 xmlns:xlink="http://www.w3.org/1999/xlink">
 <defs>
  <style type="text/css">
   <![CDATA[
    .fil0 {fill:url(#id0);fill-rule:nonzero}
   ]]>
  </style>
  <linearGradient id="id0" gradientUnits="userSpaceOnUse" x1="-1096.2" y1="-2374.7" x2="10018.3" y2="11001.6">
   <stop offset="0" style="stop-opacity:1; stop-color:#EDCF18"/>
   <stop offset="0.388235" style="stop-opacity:1; stop-color:#B31279"/>
   <stop offset="0.619608" style="stop-opacity:1; stop-color:#B31279"/>
   <stop offset="1" style="stop-opacity:1; stop-color:#540080"/>
  </linearGradient>
 </defs>
 <g id="Camada_x0020_1">
  <metadata id="CorelCorpID_0Corel-Layer"/>
  <path class="fil0" d="M9110.6 7554.1c0,859.7 -697.2,1556.9 -1556.9,1556.9 -1112.1,0 554.8,0 -5996.9,0 -860.1,0 -1556.9,-696.7 -1556.9,-1556.9l0 -5997.3c0,-859.7 697.2,-1556.9 1556.9,-1556.9l5996.9 0c859.7,0 1556.9,697.2 1556.9,1556.9l0 5997.3zm-4424.5 -5631.9c-150.8,77.7 -222.2,119.7 -240.6,138.6 -348.6,130.2 -623.7,424.6 -449.4,815.2 281.4,631.2 821.5,-38.2 1324.2,-29 810.6,14.7 1639.6,1169.6 759.3,1805.9 -604.4,436.8 -876.1,404 -1171.7,1172.2 -136.9,356.1 -215.5,862.2 201.6,1068.4 48.7,23.9 97.9,36.1 147,38.6 -21.8,94.9 4.2,70.1 -104.6,161.7 -115.9,97.9 -259.5,178.9 -302.8,330.5l7.6 -2.1c-259.1,224.7 68.9,832.8 641.7,877.8 34,2.5 65.5,2.1 94.5,-1.7 44.9,-0.8 87.8,-5.5 118,-18.1 294.8,-119.3 637.1,-585.9 557.3,-916.4 -73.5,-304.1 -390.6,-406.5 -643,-514.5 -24.4,-10.5 -41.2,-18.5 -52.9,-24.8 208.3,-145.7 381.3,-408.6 451.5,-588.4 191.5,-489.7 53.8,-539.7 561.5,-858.4 283.5,-178.1 981.5,-693.8 1077.7,-1014.7l0 0c213.8,-262.9 209.2,-789.6 123.5,-1096.6 -115.1,-413.3 -375.5,-756.4 -691.3,-1038.6 -678.3,-558.1 -1614,-692.1 -2409.4,-305.7l0.4 0zm235.2 3818.4c6.7,-7.6 6.3,-5.5 14.7,-18.1 5.9,-9.2 7.6,-15.1 11.3,-24.4 -26.9,14.7 -17.6,8.8 -26,42.4zm-87.8 1653c18.5,-11.3 13.4,-4.6 31.9,-27.3l-19.3 5.9 -12.6 21.4z"/>
 </g>
</svg>
