<?xml version="1.0" encoding="UTF-8"?>
<!DOCTYPE svg PUBLIC "-//W3C//DTD SVG 1.1//EN" "http://www.w3.org/Graphics/SVG/1.1/DTD/svg11.dtd">
<!-- Creator: CorelDRAW 2018 (64 Bit) -->
<svg xmlns="http://www.w3.org/2000/svg" xml:space="preserve" width="83.3416mm" height="83.3454mm" version="1.1" style="shape-rendering:geometricPrecision; text-rendering:geometricPrecision; image-rendering:optimizeQuality; fill-rule:evenodd; clip-rule:evenodd"
viewBox="0 0 9180.6 9181"
 xmlns:xlink="http://www.w3.org/1999/xlink">
 <defs>
  <style type="text/css">
   <![CDATA[
    .fil0 {fill:white;fill-rule:nonzero}
   ]]>
  </style>
 </defs>
 <g id="Camada_x0020_1">
  <metadata id="CorelCorpID_0Corel-Layer"/>
  <path class="fil0" d="M9180.6 7612.2c0,866.3 -702.5,1568.8 -1568.8,1568.8 -1120.7,0 559.1,0 -6043,0 -866.7,0 -1568.8,-702.1 -1568.8,-1568.8l0 -6043.4c0,-866.3 702.5,-1568.8 1568.8,-1568.8l6043 0c866.3,0 1568.8,702.5 1568.8,1568.8l0 6043.4zm-4458.5 -5675.2c-151.9,78.3 -223.9,120.6 -242.5,139.7 -351.3,131.2 -628.5,427.9 -452.8,821.4 283.6,636.1 827.8,-38.5 1334.4,-29.2 816.8,14.8 1652.2,1178.6 765.2,1819.8 -609,440.1 -882.8,407.1 -1180.7,1181.2 -138,358.9 -217.1,868.8 203.1,1076.6 49.1,24.1 98.6,36.4 148.1,38.9 -22,95.6 4.2,70.7 -105.4,162.9 -116.8,98.6 -261.5,180.3 -305.1,333.1l7.6 -2.1c-261.1,226.4 69.4,839.2 646.7,884.5 34.3,2.5 66,2.1 95.2,-1.7 45.3,-0.8 88.5,-5.5 118.9,-18.2 297.1,-120.2 642,-590.4 561.6,-923.4 -74.1,-306.4 -393.6,-409.7 -647.9,-518.4 -24.5,-10.6 -41.5,-18.6 -53.3,-25 209.9,-146.8 384.3,-411.8 454.9,-592.9 193,-493.5 54.2,-543.8 565.8,-865 285.7,-179.4 989,-699.1 1085.9,-1022.5l0 0c215.4,-264.9 210.8,-795.6 124.4,-1105 -116,-416.4 -378.3,-762.2 -696.6,-1046.6 -683.5,-562.4 -1626.4,-697.4 -2427.9,-308.1l0.4 0zm237 3847.8c6.8,-7.6 6.3,-5.5 14.8,-18.2 5.9,-9.3 7.6,-15.2 11.4,-24.5 -27.1,14.8 -17.8,8.9 -26.2,42.7zm-88.5 1665.7c18.6,-11.4 13.5,-4.7 32.2,-27.5l-19.5 5.9 -12.7 21.6z"/>
 </g>
</svg>
