<svg xmlns="http://www.w3.org/2000/svg" width="315" height="315" fill-rule="evenodd" clip-rule="evenodd" image-rendering="optimizeQuality" shape-rendering="geometricPrecision" text-rendering="geometricPrecision" viewBox="0 0 3491 3491"><path fill="none" fill-rule="nonzero" d="M3491 2895c0 329-267 596-597 596H597A596 596 0 010 2895V597C0 267 267 0 597 0h2297c330 0 597 267 597 597v2298zM1796 737c-58 29-85 45-93 53-133 50-239 162-172 312 108 242 315-15 508-11 310 5 628 448 290 692-231 167-335 155-448 449-53 136-83 330 77 409 18 10 37 14 56 15-8 37 2 27-40 62-44 38-100 69-116 127l3-1c-99 86 26 319 246 336h36c17-1 34-2 45-7 113-46 244-225 214-351-29-117-150-156-247-197l-20-10c80-56 146-157 173-225 73-188 20-207 215-329 109-69 376-266 413-389 82-101 80-303 47-420a860 860 0 00-1188-515v-1zm90 1463l5-7 5-10c-11 6-7 4-10 17zm-34 633c7-4 5-2 12-10l-7 2-5 8z"/><path fill="#b31279" stroke="#373435" stroke-miterlimit="22.9" stroke-width="8.4" d="M1526 1091c311 6 629 448 291 692-231 167-335 155-449 449-52 137-82 330 78 409 18 10 37 14 56 15-9 37 1 27-40 62-45 38-100 69-116 127l3-1c-100 86 26 319 246 336h36c17-1 33-2 45-7 113-46 244-225 213-351-28-117-149-156-246-197l-20-10c80-56 146-156 173-225 73-188 20-207 215-329 109-68 376-266 413-389 82-101 80-303 47-420a860 860 0 00-1188-515h0c-58 29-85 45-92 53-134 50-239 162-172 312 108 242 315-15 507-11z"/></svg>