<?xml version="1.0" encoding="UTF-8"?>
<!DOCTYPE svg PUBLIC "-//W3C//DTD SVG 1.1//EN" "http://www.w3.org/Graphics/SVG/1.1/DTD/svg11.dtd">
<!-- Creator: CorelDRAW 2018 (64 Bit) -->
<svg xmlns="http://www.w3.org/2000/svg" xml:space="preserve" width="83.3416mm" height="83.3454mm" version="1.1" style="shape-rendering:geometricPrecision; text-rendering:geometricPrecision; image-rendering:optimizeQuality; fill-rule:evenodd; clip-rule:evenodd"
viewBox="0 0 3490.9 3491"
 xmlns:xlink="http://www.w3.org/1999/xlink">
 <defs>
  <style type="text/css">
   <![CDATA[
    .str0 {stroke:#373435;stroke-width:8.4;stroke-miterlimit:22.9256}
    .fil0 {fill:none;fill-rule:nonzero}
    .fil1 {fill:#B31279}
   ]]>
  </style>
 </defs>
 <g id="Camada_x0020_1">
  <metadata id="CorelCorpID_0Corel-Layer"/>
  <g id="_2139173442880">
   <path class="fil0" d="M3490.9 2894.5c0,329.4 -267.1,596.5 -596.5,596.5 -426.1,0 212.6,0 -2297.8,0 -329.6,0 -596.5,-267 -596.5,-596.5l0 -2298c0,-329.4 267.1,-596.5 596.5,-596.5l2297.8 0c329.4,0 596.5,267.1 596.5,596.5l0 2298zm-1695.3 -2158c-57.8,29.8 -85.1,45.9 -92.2,53.1 -133.6,49.9 -239,162.7 -172.2,312.3 107.8,241.9 314.8,-14.6 507.4,-11.1 310.6,5.6 628.2,448.2 290.9,692 -231.6,167.4 -335.7,154.8 -449,449.1 -52.5,136.5 -82.6,330.4 77.2,409.4 18.7,9.2 37.5,13.8 56.3,14.8 -8.4,36.4 1.6,26.9 -40.1,62 -44.4,37.5 -99.5,68.6 -116,126.6l2.9 -0.8c-99.3,86.1 26.4,319.1 245.9,336.3 13,1 25.1,0.8 36.2,-0.6 17.2,-0.3 33.6,-2.1 45.2,-6.9 113,-45.7 244.1,-224.5 213.5,-351.1 -28.2,-116.5 -149.7,-155.8 -246.4,-197.1 -9.3,-4 -15.8,-7.1 -20.3,-9.5 79.8,-55.8 146.1,-156.6 173,-225.5 73.4,-187.6 20.6,-206.8 215.2,-328.9 108.6,-68.2 376.1,-265.8 412.9,-388.8l0 0c81.9,-100.7 80.1,-302.5 47.3,-420.2 -44.1,-158.3 -143.9,-289.8 -264.9,-398 -259.9,-213.9 -618.4,-265.2 -923.2,-117.2l0.2 0zm90.1 1463.1c2.6,-2.9 2.4,-2.1 5.6,-6.9 2.3,-3.5 2.9,-5.8 4.3,-9.3 -10.3,5.6 -6.8,3.4 -10,16.3zm-33.6 633.4c7.1,-4.3 5.1,-1.8 12.2,-10.5l-7.4 2.3 -4.8 8.2z"/>
   <path class="fil1 str0" d="M1526.4 1090.9c310.6,5.6 628.2,448.2 290.9,692 -231.6,167.4 -335.7,154.8 -449,449.1 -52.5,136.5 -82.6,330.4 77.2,409.4 18.7,9.2 37.5,13.8 56.3,14.8 -8.4,36.4 1.6,26.9 -40.1,62 -44.4,37.5 -99.5,68.6 -116,126.6l2.9 -0.8c-99.3,86.1 26.4,319.1 245.9,336.3 13,1 25.1,0.8 36.2,-0.6 17.2,-0.3 33.6,-2.1 45.2,-6.9 113,-45.7 244.1,-224.5 213.5,-351.1 -28.2,-116.5 -149.7,-155.8 -246.4,-197.1 -9.3,-4 -15.8,-7.1 -20.3,-9.5 79.8,-55.8 146.1,-156.6 173,-225.5 73.4,-187.6 20.6,-206.8 215.2,-328.9 108.6,-68.2 376.1,-265.8 412.9,-388.8 81.9,-100.7 80.1,-302.5 47.3,-420.2 -44.1,-158.3 -143.9,-289.8 -264.9,-398 -259.9,-213.9 -618.4,-265.2 -923.2,-117.2l0.2 0c-57.8,29.8 -85.1,45.9 -92.2,53.1 -133.6,49.9 -239,162.7 -172.2,312.3 107.8,241.9 314.8,-14.6 507.4,-11.1z"/>
  </g>
 </g>
</svg>
