<?xml version="1.0" encoding="UTF-8"?>
<!DOCTYPE svg PUBLIC "-//W3C//DTD SVG 1.1//EN" "http://www.w3.org/Graphics/SVG/1.1/DTD/svg11.dtd">
<!-- Creator: CorelDRAW 2018 (64 Bit) -->
<svg xmlns="http://www.w3.org/2000/svg" xml:space="preserve" width="83.3416mm" height="83.3454mm" version="1.1" style="shape-rendering:geometricPrecision; text-rendering:geometricPrecision; image-rendering:optimizeQuality; fill-rule:evenodd; clip-rule:evenodd"
viewBox="0 0 3465.3 3465.4"
 xmlns:xlink="http://www.w3.org/1999/xlink">
 <defs>
  <style type="text/css">
   <![CDATA[
    .str0 {stroke:#373435;stroke-width:8.3;stroke-miterlimit:22.9256}
    .fil0 {fill:none;fill-rule:nonzero}
    .fil1 {fill:white}
   ]]>
  </style>
 </defs>
 <g id="Camada_x0020_1">
  <metadata id="CorelCorpID_0Corel-Layer"/>
  <g id="_2139173409088">
   <path class="fil0" d="M3465.3 2873.3c0,327 -265.2,592.2 -592.2,592.2 -423,0 211,0 -2281,0 -327.2,0 -592.2,-265 -592.2,-592.2l0 -2281.1c0,-327 265.2,-592.2 592.2,-592.2l2281 0c327,0 592.2,265.2 592.2,592.2l0 2281.1zm-1682.9 -2142.1c-57.3,29.6 -84.5,45.5 -91.5,52.7 -132.6,49.5 -237.2,161.5 -170.9,310.1 107,240.1 312.5,-14.5 503.7,-11 308.3,5.6 623.6,444.9 288.8,686.9 -229.9,166.1 -333.2,153.7 -445.7,445.8 -52.1,135.5 -81.9,328 76.7,406.4 18.5,9.1 37.2,13.7 55.9,14.7 -8.3,36.1 1.6,26.7 -39.8,61.5 -44.1,37.2 -98.7,68 -115.2,125.7l2.9 -0.8c-98.6,85.5 26.2,316.8 244.1,333.9 12.9,1 24.9,0.8 35.9,-0.6 17.1,-0.3 33.4,-2.1 44.9,-6.9 112.1,-45.4 242.3,-222.8 212,-348.6 -28,-115.7 -148.6,-154.6 -244.6,-195.7 -9.3,-4 -15.7,-7 -20.1,-9.4 79.2,-55.4 145,-155.4 171.7,-223.8 72.8,-186.3 20.4,-205.3 213.6,-326.5 107.8,-67.7 373.3,-263.9 409.9,-385.9l0 0c81.3,-100 79.6,-300.3 47,-417.1 -43.8,-157.2 -142.8,-287.7 -262.9,-395 -258,-212.3 -613.9,-263.3 -916.4,-116.3l0.2 0zm89.5 1452.4c2.6,-2.9 2.4,-2.1 5.6,-6.9 2.2,-3.5 2.9,-5.8 4.3,-9.3 -10.2,5.6 -6.7,3.4 -9.9,16.1zm-33.4 628.7c7,-4.3 5.1,-1.8 12.1,-10.4l-7.3 2.2 -4.8 8.1z"/>
   <path class="fil1 str0" d="M1515.2 1082.9c308.3,5.6 623.6,444.9 288.8,686.9 -229.9,166.1 -333.2,153.7 -445.7,445.8 -52.1,135.5 -81.9,328 76.7,406.4 18.5,9.1 37.2,13.7 55.9,14.7 -8.3,36.1 1.6,26.7 -39.8,61.5 -44.1,37.2 -98.7,68 -115.2,125.7l2.9 -0.8c-98.6,85.5 26.2,316.8 244.1,333.9 12.9,1 24.9,0.8 35.9,-0.6 17.1,-0.3 33.4,-2.1 44.9,-6.9 112.1,-45.4 242.3,-222.8 212,-348.6 -28,-115.7 -148.6,-154.6 -244.6,-195.7 -9.3,-4 -15.7,-7 -20.1,-9.4 79.2,-55.4 145,-155.4 171.7,-223.8 72.8,-186.3 20.4,-205.3 213.6,-326.5 107.8,-67.7 373.3,-263.9 409.9,-385.9 81.3,-100 79.6,-300.3 47,-417.1 -43.8,-157.2 -142.8,-287.7 -262.9,-395 -258,-212.3 -613.9,-263.3 -916.4,-116.3l0.2 0c-57.3,29.6 -84.5,45.5 -91.5,52.7 -132.6,49.5 -237.2,161.5 -170.9,310.1 107,240.1 312.5,-14.5 503.7,-11z"/>
  </g>
 </g>
</svg>
